<svg width="208" height="208" viewBox="0 0 208 208" fill="none" xmlns="http://www.w3.org/2000/svg">
<mask id="mask0_138_3324" style="mask-type:alpha" maskUnits="userSpaceOnUse" x="0" y="0" width="208" height="208">
<rect width="208" height="208" fill="#D9D9D9"/>
</mask>
<g mask="url(#mask0_138_3324)">
<path d="M79.6799 26.928C75.2548 45.2316 36.1477 93.8372 -4.55045 131.218C-9.94722 136.175 -16.4282 134.658 -20.2558 133.874C-26.6993 132.554 -30.7565 122.937 -34.7295 109.482C-38.8857 95.4068 -38.0165 84.0819 -34.0467 77.5139C-21.6056 56.9304 14.8787 60.2402 27.1624 61.1786C41.4362 62.2691 39.0594 80.4779 44.2914 82.9024C64.1328 92.0968 92.0643 51.6838 101.001 33.8223C104.461 26.9068 101.536 18.8936 98.1113 12.2789C95.229 6.71124 75.6842 5.44715 48.48 5.48735C28.3049 5.51716 15.7876 15.8655 7.58932 23.8985C0.685297 30.6634 -1.96926 37.9681 -3.74934 43.5283C-4.63258 46.2872 -4.89269 49.0886 -3.11627 52.9608C8.61742 78.5377 34.4712 92.67 37.7283 98.7729C39.3133 101.743 38.571 105.387 36.3427 108.156C31.2904 114.435 10.6848 115.434 -12.5965 115.057C-21.1146 114.919 -22.8013 112.309 -23.8123 108.601C-24.8234 104.894 -25.0721 99.5078 -23.5006 95.1763C-21.9291 90.8448 -18.5298 87.7307 -14.4406 85.4997C9.46389 72.4577 46.5527 82.8559 58.8681 87.76C77.9565 95.3611 76.0621 124.331 76.656 135.823C77.4284 150.772 102.236 114.17 111.488 95.2917C113.616 90.9519 114.681 86.6562 114.716 83.267C114.75 79.8778 113.38 77.374 111.416 75.6878C107.531 72.352 97.5298 71.235 85.9288 70.317C81.1485 69.9388 78.5793 72.228 76.7895 74.7124C67.6251 87.4331 77.8497 114.562 82.4069 130.36C83.3787 133.729 80.4184 137.727 76.2981 140.785C52.758 158.258 12.4877 153.945 -5.48506 151.044C-11.4012 150.089 -9.05804 139.725 -8.71314 134.232C-8.3596 128.601 -4.66285 122.835 2.27509 116.551C22.0121 98.6758 39.7585 101.775 45.0833 102.059C47.7359 102.2 49.9371 104.542 51.7063 107.585C53.4754 110.629 54.656 114.867 54.3987 119.161C54.1413 123.455 52.4101 127.677 50.1901 130.974C39.4967 146.858 13.9503 147.764 7.88192 146.506C3.21157 145.537 4.30793 134.214 5.84838 123.55C7.18419 114.302 19.703 109.115 30.583 104.448C38.503 101.05 45.9966 101.084 53.1976 103.767C63.0272 107.429 64.0812 122.02 65.3575 131.125C66.5345 139.522 64.7069 147.194 60.618 153.522C49.6357 170.519 14.2639 166.643 -9.50671 166.891C-13.8035 166.936 -16.749 164.816 -18.2951 160.822C-22.147 150.872 -19.44 140.097 -18.0211 133.627C-17.3295 130.473 -15.3819 127.943 -11.4489 126.021C7.96506 116.535 22.286 122.811 28.305 126.342C31.6479 128.303 34.0521 132.765 35.6082 137.071C37.1643 141.377 37.4097 145.944 33.4471 150.624C13.8158 173.812 -13.8782 171.889 -27.1744 171.52C-43.3876 171.069 -30.3503 135.512 -27.0827 130.26C-19.3058 117.76 1.30872 123.056 6.57049 125.029C12.659 127.313 14.8427 135.309 17.336 141.063C19.8944 146.968 19.8901 153.054 17.7663 158.218C10.878 174.964 -16.7844 171.803 -27.5945 169.833C-31.9795 169.034 -32.5711 163.923 -32.7302 159.944C-32.8893 155.964 -32.1995 152.064 -29.4215 148.032C-16.6616 129.511 17.9975 130.857 37.8426 133.916C46.5615 135.26 49.2372 152.008 51.1215 166.913C52.3268 176.447 49.9713 184.438 45.9761 192.21C37.3073 209.076 -1.46416 207.295 -17.1358 204.86C-20.2697 204.373 -19.7691 197.847 -18.6239 193.412C-16.2536 184.231 -7.36559 177.578 4.00905 171.418C43.515 150.021 90.5094 162.599 104.46 171.818C108.284 174.344 110.386 179.834 113.226 182.404C116.066 184.974 118.755 185.402 121.756 184.206C128.648 181.459 133.364 173.111 136.815 165.442C139.532 159.401 139.616 152.758 138.604 146.174C137.657 140.009 130.08 136.735 122.578 133.812C114.016 130.476 105.963 130.011 99.3579 132.217C81.7311 138.103 75.7099 154.177 62.6644 158.006C56.5721 159.794 54.9553 141.249 55.3903 123.753C55.7015 111.232 66.8891 100.474 79.8968 89.8014C103.941 70.0733 144.903 76.0303 185.213 83.2158C193.2 84.6395 196.332 87.6121 198.876 86.9872C201.421 86.3622 203.069 82.9563 202.272 77.9169C200.348 65.7594 192.427 57.8277 185.864 53.8603C159.894 38.1593 126.022 35.405 113.417 35.3457C90.339 35.2372 91.7294 84.7042 95.0168 96.5625C100.443 116.134 90.1288 138.615 87.3187 143.605C84.5354 148.547 77.2589 149.867 67.0973 150.796C50.4075 152.32 37.3182 147.808 33.0785 142.445C23.7449 130.638 45.0297 101.246 66.4927 78.8412C86.2216 58.2469 115.081 56.9407 136.295 55.3746C140.589 55.0576 143.433 58.0956 146.41 58.1917C149.388 58.2879 152.356 56.4539 153.885 53.5591C155.414 50.6643 155.414 46.7643 154.503 43.4734C153.593 40.1825 151.772 37.6189 148.44 35.5754C140.905 30.9544 119.32 30.1517 93.7913 31.2228C80.9463 31.7617 78.0763 42.1066 74.2973 45.9799C70.0377 50.3458 55.43 44.4327 40.5218 35.5284C34.9786 32.2175 35.775 28.1828 39.2974 25.2881C62.0016 6.62995 97.3562 13.1299 110.764 14.866C115.719 15.5077 115.834 20.0743 115.453 23.5627C113.848 38.2837 100.928 52.2365 82.44 65.1453C64.7805 77.4753 33.0313 77.013 16.8888 72.1027C14.3221 71.3219 15.012 67.0132 15.9877 63.6204C18.1893 55.9647 24.5032 51.3825 30.3835 49.4283C33.4693 48.4028 36.9038 47.7626 39.7792 48.0331C42.6546 48.3036 44.9031 49.6202 46.0614 51.9218C47.2197 54.2234 47.2197 57.4701 46.6195 60.3465C46.0192 63.2229 44.8187 65.6306 42.1258 67.8658C26.2652 81.0312 -1.60325 77.789 -16.4452 72.821C-22.7879 70.698 -25.0962 62.8214 -26.7544 55.028C-28.5947 46.3787 -25.597 38.1595 -20.4819 31.8621C-4.38123 12.0396 26.1212 19.3908 31.5753 20.4454C34.4166 20.9948 36.8172 23.6092 38.6251 27.1349C40.4329 30.6607 41.4245 35.5391 40.433 40.3305C39.4415 45.122 36.4369 49.6787 31.5379 53.2564C8.44591 70.1205 -17.0215 62.424 -23.3319 59.3484C-29.6299 56.2789 -27.3483 45.0514 -27.1477 37.2182C-26.9629 30.0023 -23.7114 23.2792 -15.8663 15.833C9.33077 -8.083 44.9962 -8.14895 60.5398 -7.80365C66.8072 -7.66442 69.1098 1.29516 74.7697 3.97624C84.8553 8.75371 101.048 -1.38577 118.322 4.22281C130.043 8.02813 137.613 31.474 141.774 42.2657C145.934 53.0573 143.862 55.0074 138.579 58.5174C125.132 67.4522 115.344 74.8413 114.544 80.3383C111.021 104.539 150.39 127.52 156.622 128.288C164.105 129.209 169.984 122.148 174.396 115.805C180.462 107.081 181.879 93.8229 181.406 81.7615C180.636 62.0752 154.789 47.9451 143.486 40.6844C141.181 39.2037 139.661 36.6715 142.853 33.3557C165.35 9.99002 208.243 13.0146 236.721 13C247.455 12.9945 250.594 15.0813 252.102 23.5568C256.281 47.0326 250.039 71.1361 243.556 85.426C233.565 107.451 192.23 134.79 176.781 153.949C175.164 155.955 180.208 158.429 183.273 159.833C189.537 162.703 196.983 161.252 203.006 157.971C216.412 150.668 208.39 120.297 199.642 103.524C188.994 83.1093 173.916 80.2965 169.707 76.959C155.934 66.0369 215.789 70.6609 220.775 74.2289C225.917 77.9082 224.452 95.1238 222.389 116.078C219.607 144.34 189.19 163.974 153.974 190.81C147.324 195.877 146.887 199.131 148.328 201.054C151.85 205.756 163.554 205.278 173.622 204.256C193.96 202.191 179.171 153.611 173.424 142.751C167.69 131.914 150.988 134.298 145.411 134.601C138.223 134.993 162.456 138.352 167.32 143.234C169.657 145.58 170.218 148.952 169.088 153.073C166.392 162.904 156.731 170.079 146.651 174.837C116.343 189.142 81.0315 181.65 78.1851 176.943C76.7404 174.554 76.9571 171.338 77.2012 168.404C77.4453 165.47 78.1351 162.704 82.3474 159.108C93.2435 149.808 109.942 144.961 122.999 145.058C128.642 145.099 131.056 152.351 132.456 156.466C133.857 160.581 133.857 163.188 132.579 165.73C126.365 178.084 103.22 180.566 66.6248 180.898C59.315 180.965 57.2161 177.794 56.3425 174.831C55.4688 171.868 55.9597 168.074 57.4843 165.186C59.009 162.298 61.5527 160.431 64.2178 159.37C66.8829 158.308 69.5924 158.109 71.207 159.532C74.8999 162.787 73.3059 172.569 71.7394 182.277C69.0623 198.868 39.6652 210.044 4.57811 220.636C-18.7961 227.693 -39.1064 225.769 -48.8159 223.499C-53.0762 222.503 -53.8859 216.689 -53.9956 212.647C-54.1996 205.13 -47.2918 198.009 -38.4886 191.42C-19.8504 177.47 9.5096 174.457 24.6442 175.449C27.7447 175.652 28.0598 181.05 27.7771 184.571C27.4944 188.091 25.9688 191.285 23.7072 192.088C21.4455 192.891 18.4939 191.206 16.597 188.635C14.7001 186.064 13.9473 182.658 14.2194 179.325C14.4916 175.992 15.8115 172.835 18.8792 170.688C40.9762 155.222 76.4295 167.322 81.3132 169.919C83.7165 171.197 84.8438 174.101 83.6696 176.608C80.6893 182.97 63.205 187.506 45.1693 190.914C38.8265 192.112 37.7359 187.424 37.9964 183.67C38.2568 179.916 39.7856 176.009 43.281 173.121C51.0257 166.722 63.0846 165.789 72.6201 165.442C80.245 165.165 84.1923 172.684 87.129 175.551C102.457 190.517 142.576 166.973 149.882 168.4C153.285 169.064 155.494 171.69 157.075 173.999C158.656 176.307 159.395 178.752 158.524 180.493C157.653 182.235 155.149 183.2 152.53 182.71C149.91 182.221 147.25 180.248 146.538 177.339C145.827 174.431 147.143 170.647 152.28 168.573C165.49 163.241 179.95 167.188 187.192 170.783C190.506 172.428 191.075 176.756 184.394 178.884C177.713 181.013 163.25 181.59 155.408 180.237C147.566 178.884 146.784 175.585 146.898 172.502C147.118 166.546 153.633 159.028 163.786 150.632C187.327 131.165 233.686 136.54 269.605 140.534C275.183 141.154 275.01 145.472 273.531 148.442C266.166 163.227 214.626 163.586 157.426 158.043C147.965 157.126 144.424 154.273 141.97 150.894C139.516 147.516 138.422 142.624 138.501 137.763C138.981 108.497 177.351 80.0996 195.845 73.7102C200.63 72.0571 206 72.4575 209.29 70.3107C212.58 68.1638 213.84 64.287 213.38 60.7112C209.735 32.3811 148.474 29.2438 140.011 28.2355C136.362 27.8007 133.923 29.6482 132.283 32.3462C119.507 53.3633 131.176 88.9985 133.806 99.6353C134.491 102.407 132.603 105.479 130.675 106.919C128.746 108.359 126.007 108.156 124.646 106.551C123.284 104.947 123.384 101.945 125.647 99.7325C146.286 79.5543 193.421 94.788 200.819 98.4701C203.941 100.024 204.102 103.542 202.859 107.174C196.047 127.076 158.579 129.163 120.583 128.632C113.773 128.537 112.967 124.055 112.636 121.101C111.272 108.946 137.638 90.4847 178.865 63.6295C186.648 58.5593 189.252 56.3936 190.687 53.9282C193.412 49.2493 155.005 44.1647 98.2877 44.1404C78.9881 44.1322 79.2772 51.3923 80.8721 57.3317C88.49 85.6994 107.523 101.003 109.754 105.886C110.852 108.289 110.512 111.057 108.584 113.868C98.6621 128.329 74.6322 126.349 58.7395 124.992C52.7168 124.478 51.3732 120.923 50.613 117.823C47.4151 104.781 53.3122 89.3943 65.2654 69.474C68.1582 64.653 71.584 61.7611 73.2968 58.7576C75.0097 55.7541 75.3944 53.0545 73.029 51.2725C58.8279 40.5739 27.5056 52.551 3.92594 62.0238C-0.0617232 63.6257 -0.734563 67.705 -0.67934 70.8882C-0.452849 83.9437 9.45373 91.0072 11.9855 97.2563C13.2146 100.29 11.7215 103.801 10.0787 106.012C6.99351 110.164 0.128196 110.995 -6.23943 111.043C-25.2643 111.186 -19.58 54.2884 -10.2669 27.6148C-3.58422 8.4748 18.1402 2.74552 41.7095 0.0835304C88.3452 -5.18364 119.791 1.6894 121.75 8.33189C127.046 26.2911 123.749 51.0402 114.658 68.9618C104.351 89.2807 89.878 94.4001 87.9312 100.147C86.953 103.035 87.8515 106.336 89.4052 109.304C96.0323 121.965 125.57 123.001 146.554 121.46C149.906 121.214 151.873 118.441 153.675 115.401C165.188 95.981 156.659 63.607 151.447 50.4156C150.318 47.558 151.719 44.447 154.268 42.9283C160.244 39.3685 170.736 42.736 181.641 46.3112C187.369 48.189 192.944 51.6906 195.664 57.807C207.817 85.1385 168.127 121.391 157.205 141.777C148.915 157.25 183.327 155.552 185.846 155.744C186.164 155.768 182.283 154.702 179.188 155.126C165.235 157.035 152.754 175.248 127.209 189.458C104.645 202.01 79.3978 204.332 64.4025 203.031C58.3804 202.508 56.5606 197.23 56.1115 193.754C55.6624 190.279 56.8895 187.48 60.0586 184.71C67.4891 178.215 81.605 176.102 94.4986 176.553C99.3965 176.724 100.634 179.697 100.695 182.13C101.244 203.901 40.6812 206.454 22.928 207.174C16.4601 207.437 15.26 203.829 15.243 200.952C15.2261 198.076 16.4565 195.104 18.4898 192.809C30.7705 178.947 72.318 189.387 112.948 200.211C141.022 207.69 155.555 224.783 162.217 226.344C170.243 228.224 180.349 220.192 188.86 213.056C192.442 210.053 192.591 206.312 191.952 203.182C189.363 190.495 158.957 171.347 147.423 150.486C140.963 138.803 197.66 115.498 217.36 95.1126C228.98 83.0892 195.421 69.6968 190.627 63.8282C186.436 58.696 192.388 50.1431 196.18 43.1127C208.44 20.3789 120.55 12.8704 104.748 14.1488C80.5464 16.1066 99.0003 76.1377 99.1225 113.357C99.1644 126.151 92.7337 133.129 85.7203 138.833C75.1812 147.406 62.9315 149.19 56.4661 149.734C53.4123 149.991 50.7833 149.588 48.1403 146.766C34.7102 132.423 36.532 115.501 34.2777 102.478C30.8122 82.4568 74.6933 67.4922 107.815 57.0401C121.721 52.6517 135.649 53.3383 147.814 53.9436C166.418 54.8692 193.273 91.5375 213.063 121.131C220.823 132.734 221.439 156.885 224.919 181.69C226.217 190.942 233.742 191.681 238.72 192.284C243.699 192.887 247.738 192.887 250.426 191.557C253.114 190.227 254.328 187.568 254.779 184.072C255.23 180.576 254.882 176.324 253.469 172.9C247.333 158.034 225.113 156.354 216.873 156.537C202.315 156.86 213.76 187.181 208.108 198.692C202.584 209.939 186.847 204.293 181.502 203.484C178.829 203.08 176.615 201.057 176.775 198.304C177.754 181.551 216.956 178.142 248.856 178.148C253.861 178.149 253.986 182.924 252.158 185.967C250.33 189.01 246.277 191.815 242.064 193.383C237.85 194.951 233.598 195.197 229.976 194.139C226.353 193.082 223.487 190.714 221.56 186.626C210.153 162.425 221.184 128.942 230.219 111.312C244.996 82.4738 276.373 70.5581 278.23 64.8696C279.137 62.0914 278.081 59.0849 275.882 56.3846C265.08 43.123 249.382 42.7539 242.701 42.4669C219.037 41.4505 206.761 87.9154 201.449 86.7965C195.323 85.506 186.336 71.6787 172.68 57.2215C151.197 34.4776 110.452 51.1759 102.346 53.2614C86.9299 57.2273 83.5336 90.5046 84.0984 103.595C84.3951 110.471 102.462 111.103 119.935 111.306C132.135 111.448 141.522 105.94 150.928 96.755C172.444 75.7432 172.733 50.101 173.079 35.6932C173.575 15.0644 119.767 14.5264 107.789 16.5399C95.8977 18.5389 87.2089 37.9787 71.0304 51.3925C65.7422 55.777 53.2079 42.8837 40.0561 33.7355C10.9762 13.508 30.8379 124.24 40.6659 139.037C53.3102 158.074 5.18817 173.987 4.83437 179.264C4.65904 181.879 6.13876 184.349 8.4267 186.324C18.83 195.309 66.4488 192.194 108.604 187.771C120.322 186.542 128.776 178.684 136.606 172.538C150.352 161.748 152.045 124.459 150.091 92.8406C148.527 67.5498 142.842 46.3557 143.966 36.0647C144.852 27.9543 157.581 21.6781 171.105 15.651C176.569 13.2154 179.73 13.3415 183.266 14.9967C202.25 23.8826 206.638 43.6762 207.735 49.918C211.875 73.482 175.889 98.0138 174.141 110.025C173.669 113.265 176.091 116.735 178.046 119.311C180 121.888 182.448 123.456 184.561 123.226C186.674 122.996 188.379 120.92 189.63 118.148C192.301 112.229 188.218 64.0012 181.469 -4.71109C179.084 -28.9831 178.062 -31.6636 179.351 -34.1885C185.654 -46.5339 219.228 -42.3741 239.551 -34.5651C261.574 -26.1028 254.822 16.729 250.318 50.4273C242.915 105.824 232.163 133.575 233.528 154.994C234.693 173.268 204.672 171.56 194.306 179.141C168.353 198.122 117.335 178.657 111.716 178.819C108.938 178.899 106.529 180.881 104.744 182.899C96.9952 191.657 98.8307 207.82 92.3705 217.374C89.02 222.33 68.604 222.353 43.9827 220.305C35.2693 219.58 35.0911 214.161 35.9888 210.75C39.4894 197.447 62.2772 192.719 100.589 188.533C115.803 186.87 123.295 210.63 138.056 217.954C141.417 219.622 145.375 217.941 148.351 216.356C153.573 212.115 158.997 204.759 164.08 196.332C166.052 192.524 166.792 189.669 166.368 182.576" stroke="black" stroke-width="3" stroke-linecap="round"/>
</g>
</svg>
