<svg width="194" height="192" viewBox="0 0 194 192" fill="none" xmlns="http://www.w3.org/2000/svg">
<rect width="10" height="10" fill="black"/>
<rect y="45" width="10" height="10" fill="black"/>
<rect y="90" width="10" height="10" fill="black"/>
<rect y="136" width="10" height="10" fill="black"/>
<rect y="182" width="10" height="10" fill="black"/>
<rect x="46" width="10" height="10" fill="black"/>
<rect x="23" y="22" width="10" height="10" fill="black"/>
<rect x="23" y="68" width="10" height="10" fill="black"/>
<rect x="23" y="113" width="10" height="10" fill="black"/>
<rect x="23" y="159" width="10" height="10" fill="black"/>
<rect x="69" y="22" width="10" height="10" fill="black"/>
<rect x="69" y="68" width="10" height="10" fill="black"/>
<rect x="69" y="113" width="10" height="10" fill="black"/>
<rect x="69" y="159" width="10" height="10" fill="black"/>
<rect x="115" y="22" width="10" height="10" fill="black"/>
<rect x="115" y="68" width="10" height="10" fill="black"/>
<rect x="115" y="113" width="10" height="10" fill="black"/>
<rect x="115" y="159" width="10" height="10" fill="black"/>
<rect x="161" y="22" width="10" height="10" fill="black"/>
<rect x="161" y="68" width="10" height="10" fill="black"/>
<rect x="161" y="113" width="10" height="10" fill="black"/>
<rect x="161" y="159" width="10" height="10" fill="black"/>
<rect x="46" y="45" width="10" height="10" fill="black"/>
<rect x="46" y="90" width="10" height="10" fill="black"/>
<rect x="46" y="136" width="10" height="10" fill="black"/>
<rect x="46" y="182" width="10" height="10" fill="black"/>
<rect x="92" width="10" height="10" fill="black"/>
<rect x="92" y="45" width="10" height="10" fill="black"/>
<rect x="92" y="90" width="10" height="10" fill="black"/>
<rect x="92" y="136" width="10" height="10" fill="black"/>
<rect x="92" y="182" width="10" height="10" fill="black"/>
<rect x="138" width="10" height="10" fill="black"/>
<rect x="138" y="45" width="10" height="10" fill="black"/>
<rect x="138" y="90" width="10" height="10" fill="black"/>
<rect x="138" y="136" width="10" height="10" fill="black"/>
<rect x="138" y="182" width="10" height="10" fill="black"/>
<rect x="184" width="10" height="10" fill="black"/>
<rect x="184" y="45" width="10" height="10" fill="black"/>
<rect x="184" y="90" width="10" height="10" fill="black"/>
<rect x="184" y="136" width="10" height="10" fill="black"/>
<rect x="184" y="182" width="10" height="10" fill="black"/>
</svg>
