<svg width="935" height="496" viewBox="0 0 935 496" fill="none" xmlns="http://www.w3.org/2000/svg">
<rect x="41.9717" y="41.1387" width="414.986" height="414.986" rx="24.3631" transform="rotate(5.80483 41.9717 41.1387)" fill="#F0DFD1"/>
<rect x="488.922" y="32.1133" width="414.986" height="414.986" rx="24.3631" transform="rotate(-4.43819 488.922 32.1133)" fill="#F0DFD1"/>
<path d="M604.873 281.286C595.783 315.892 624.98 351.279 641.419 374.168C636.818 341.129 654.765 305.099 738.19 319.811C837.853 337.387 820.726 265.356 817.418 254.209C814.109 243.062 799.406 224.61 802.762 201.985C804.9 187.564 818.618 170.218 813.139 146.614C802.738 101.806 766.784 100.516 741.164 116.758C729.444 124.189 709.508 139.172 661.817 122.917C596.909 100.794 586.585 162.967 603.082 195.083C618.575 225.241 615.247 241.79 604.873 281.286Z" fill="#F3CCCD" stroke="black" stroke-width="2.43631" stroke-linecap="square"/>
<path d="M687.082 146.176C694.547 136.824 708.372 135.751 717.19 143.84V143.84C722.433 148.649 729.781 150.421 736.64 148.531V148.531C748.176 145.353 759.991 152.61 762.371 164.337V164.337C763.786 171.31 768.689 177.063 775.349 179.566V179.566C786.55 183.775 791.842 196.591 786.875 207.477V207.477C783.921 213.95 784.506 221.486 788.423 227.425V227.425C795.011 237.415 791.759 250.894 781.342 256.781V256.781C775.148 260.281 771.191 266.723 770.869 273.83V273.83C770.327 285.783 759.774 294.777 747.885 293.417V293.417C740.817 292.608 733.83 295.493 729.392 301.054V301.054C721.928 310.406 708.103 311.479 699.285 303.39V303.39C694.042 298.581 686.693 296.809 679.835 298.699V298.699C668.299 301.877 656.484 294.619 654.104 282.892V282.892C652.689 275.92 647.786 270.167 641.126 267.664V267.664C629.925 263.455 624.632 250.639 629.6 239.753V239.753C632.553 233.28 631.968 225.744 628.052 219.805V219.805C621.464 209.815 624.715 196.336 635.133 190.449V190.449C641.327 186.948 645.283 180.507 645.605 173.4V173.4C646.147 161.447 656.701 152.453 668.589 153.813V153.813C675.657 154.622 682.644 151.737 687.082 146.176V146.176Z" fill="#69A1AE"/>
<path d="M690.156 157.428C696.536 149.435 708.351 148.518 715.888 155.431V155.431C720.369 159.541 726.65 161.056 732.512 159.441V159.441C742.372 156.724 752.471 162.928 754.505 172.951V172.951C755.714 178.91 759.905 183.827 765.597 185.966V185.966C775.17 189.564 779.694 200.518 775.448 209.822V209.822C772.924 215.354 773.424 221.796 776.771 226.872V226.872C782.402 235.41 779.623 246.931 770.719 251.963V251.963C765.425 254.954 762.044 260.459 761.768 266.534V266.534C761.305 276.751 752.285 284.438 742.124 283.275V283.275C736.083 282.584 730.111 285.05 726.318 289.802V289.802C719.938 297.796 708.122 298.713 700.585 291.799V291.799C696.104 287.689 689.823 286.174 683.961 287.789V287.789C674.101 290.506 664.003 284.303 661.969 274.28V274.28C660.759 268.321 656.569 263.403 650.877 261.264V261.264C641.303 257.667 636.779 246.712 641.025 237.408V237.408C643.55 231.876 643.05 225.435 639.702 220.359V220.359C634.071 211.821 636.85 200.3 645.754 195.268V195.268C651.048 192.276 654.43 186.771 654.705 180.697V180.697C655.168 170.48 664.188 162.793 674.349 163.956V163.956C680.391 164.647 686.362 162.181 690.156 157.428V157.428Z" fill="#8FC2C6"/>
<path d="M692.506 166.032C698.057 159.078 708.337 158.28 714.894 164.294V164.294C718.792 167.87 724.257 169.188 729.357 167.783V167.783C737.935 165.419 746.72 170.816 748.49 179.536V179.536C749.542 184.721 753.188 188.999 758.14 190.86V190.86C766.469 193.99 770.405 203.52 766.711 211.615V211.615C764.515 216.427 764.95 222.032 767.862 226.448V226.448C772.761 233.876 770.343 243.899 762.596 248.277V248.277C757.991 250.879 755.049 255.669 754.809 260.954V260.954C754.406 269.842 746.559 276.53 737.719 275.518V275.518C732.463 274.917 727.267 277.062 723.967 281.197V281.197C718.417 288.151 708.137 288.949 701.58 282.935V282.935C697.681 279.359 692.217 278.041 687.117 279.446V279.446C678.539 281.81 669.753 276.413 667.984 267.693V267.693C666.932 262.508 663.286 258.23 658.334 256.369V256.369C650.004 253.239 646.069 243.709 649.763 235.614V235.614C651.959 230.802 651.524 225.197 648.612 220.781V220.781C643.713 213.353 646.131 203.33 653.877 198.952V198.952C658.483 196.35 661.425 191.56 661.664 186.275V186.275C662.067 177.387 669.915 170.699 678.755 171.711V171.711C684.011 172.312 689.206 170.167 692.506 166.032V166.032Z" fill="#BFD8DC"/>
<path d="M788.435 116.219L775.094 117.254C771.832 117.507 769.53 114.11 770.97 111.166L788.736 74.824C790.945 70.3059 797.694 71.601 798.083 76.6177L799.772 98.377L813.113 97.3415C816.376 97.0883 818.677 100.486 817.238 103.43L799.471 139.772C797.262 144.29 790.514 142.995 790.124 137.978L788.435 116.219Z" fill="#4643FF"/>
<path d="M323.535 170.166L144.981 152.014C136.949 151.197 129.777 157.035 128.96 165.067L111.71 334.746C105.238 398.411 136.734 408.443 143.797 404.535C129.828 368.504 146.87 354.238 161.817 355.757L303.206 370.131C311.238 370.948 318.411 365.098 319.228 357.067L336.6 186.187C337.416 178.155 331.567 170.982 323.535 170.166Z" fill="#FDFAE7" stroke="black" stroke-width="2.43631" stroke-linecap="square"/>
<path d="M194.584 183.995C174.17 181.92 155.939 196.786 153.863 217.201C151.788 237.615 166.655 255.846 187.069 257.922C166.655 255.846 148.423 270.713 146.348 291.127C144.273 311.541 159.139 329.773 179.553 331.848L253.48 339.364C273.894 341.439 292.126 326.572 294.201 306.158C296.276 285.744 281.41 267.512 260.995 265.437C281.41 267.512 299.641 252.646 301.716 232.232C303.792 211.817 288.925 193.586 268.511 191.511L194.584 183.995Z" fill="#E7A46D"/>
<path d="M198.767 195.032C181.253 193.252 165.612 206.006 163.832 223.52C162.051 241.034 174.806 256.675 192.32 258.456C174.806 256.675 159.165 269.43 157.384 286.944C155.604 304.457 168.358 320.099 185.872 321.879L249.295 328.327C266.809 330.107 282.45 317.353 284.231 299.839C286.011 282.325 273.257 266.684 255.743 264.903C273.257 266.684 288.898 253.93 290.678 236.416C292.459 218.902 279.705 203.261 262.191 201.48L198.767 195.032Z" fill="#D58705"/>
<path d="M202.631 205.219C187.794 203.711 174.544 214.516 173.036 229.352C171.527 244.189 182.332 257.439 197.169 258.947C182.332 257.439 169.082 268.244 167.573 283.08C166.065 297.917 176.87 311.167 191.706 312.675L245.435 318.137C260.271 319.646 273.521 308.841 275.03 294.004C276.538 279.168 265.733 265.918 250.897 264.409C265.733 265.918 278.983 255.113 280.492 240.276C282 225.44 271.195 212.19 256.359 210.681L202.631 205.219Z" fill="#F8D875"/>
<path d="M329.502 135.751C337.33 132.504 343.434 136.202 346.563 141.358C349.663 146.469 347.884 154.533 340.319 159.95C342.443 158.557 350.541 156.005 356.145 160.606C361.954 165.374 361.753 171.248 359.527 175.949C356.036 183.325 349.674 188.231 343.928 192.113C348.741 191.384 356.273 191.168 361.055 196.094C365.838 201.019 365.222 209.708 354.438 214.96C343.655 220.213 319.875 225.9 314.013 208.62C311.662 201.691 316.232 194.859 319.243 191.388C320.546 189.885 324.566 185.587 331.036 180.584C322.702 185.836 307.698 191.335 300.447 183.193C285.944 166.909 315.497 141.561 329.502 135.751Z" fill="#4643FF"/>
<mask id="mask0_144_3869" style="mask-type:alpha" maskUnits="userSpaceOnUse" x="646" y="160" width="125" height="127">
<path d="M692.506 166.033C698.057 159.079 708.337 158.281 714.894 164.295V164.295C718.792 167.871 724.257 169.189 729.357 167.784V167.784C737.935 165.42 746.72 170.817 748.49 179.537V179.537C749.542 184.722 753.188 189 758.14 190.861V190.861C766.469 193.991 770.405 203.521 766.711 211.616V211.616C764.515 216.428 764.95 222.033 767.862 226.449V226.449C772.761 233.877 770.343 243.9 762.596 248.278V248.278C757.991 250.88 755.049 255.67 754.809 260.955V260.955C754.406 269.843 746.559 276.531 737.719 275.519V275.519C732.463 274.918 727.267 277.063 723.967 281.198V281.198C718.417 288.152 708.137 288.95 701.58 282.936V282.936C697.681 279.36 692.217 278.042 687.117 279.447V279.447C678.539 281.811 669.753 276.414 667.984 267.694V267.694C666.932 262.509 663.286 258.231 658.334 256.37V256.37C650.004 253.24 646.069 243.71 649.763 235.615V235.615C651.959 230.803 651.524 225.198 648.612 220.782V220.782C643.713 213.354 646.131 203.331 653.877 198.953V198.953C658.483 196.351 661.425 191.561 661.664 186.276V186.276C662.067 177.388 669.915 170.7 678.755 171.712V171.712C684.011 172.313 689.206 170.168 692.506 166.033V166.033Z" fill="#BFD8DC"/>
</mask>
<g mask="url(#mask0_144_3869)">
<rect x="641.863" y="166.046" width="6.32102" height="6.32102" transform="rotate(-4.43819 641.863 166.046)" fill="black"/>
<rect x="644.064" y="194.405" width="6.32102" height="6.32102" transform="rotate(-4.43819 644.064 194.405)" fill="black"/>
<rect x="646.266" y="222.765" width="6.32102" height="6.32102" transform="rotate(-4.43819 646.266 222.765)" fill="black"/>
<rect x="648.516" y="251.754" width="6.32102" height="6.32102" transform="rotate(-4.43819 648.516 251.754)" fill="black"/>
<rect x="650.766" y="280.744" width="6.32102" height="6.32102" transform="rotate(-4.43819 650.766 280.744)" fill="black"/>
<rect x="670.853" y="163.796" width="6.32102" height="6.32102" transform="rotate(-4.43819 670.853 163.796)" fill="black"/>
<rect x="657.435" y="178.786" width="6.32102" height="6.32102" transform="rotate(-4.43819 657.435 178.786)" fill="black"/>
<rect x="659.685" y="207.775" width="6.32102" height="6.32102" transform="rotate(-4.43819 659.685 207.775)" fill="black"/>
<rect x="661.886" y="236.134" width="6.32102" height="6.32102" transform="rotate(-4.43819 661.886 236.134)" fill="black"/>
<rect x="664.136" y="265.124" width="6.32102" height="6.32102" transform="rotate(-4.43819 664.136 265.124)" fill="black"/>
<rect x="686.424" y="176.536" width="6.32102" height="6.32102" transform="rotate(-4.43819 686.424 176.536)" fill="black"/>
<rect x="688.674" y="205.525" width="6.32102" height="6.32102" transform="rotate(-4.43819 688.674 205.525)" fill="black"/>
<rect x="690.875" y="233.884" width="6.32102" height="6.32102" transform="rotate(-4.43819 690.875 233.884)" fill="black"/>
<rect x="693.125" y="262.874" width="6.32102" height="6.32102" transform="rotate(-4.43819 693.125 262.874)" fill="black"/>
<rect x="715.414" y="174.286" width="6.32102" height="6.32102" transform="rotate(-4.43819 715.414 174.286)" fill="black"/>
<rect x="717.664" y="203.275" width="6.32102" height="6.32102" transform="rotate(-4.43819 717.664 203.275)" fill="black"/>
<rect x="719.864" y="231.634" width="6.32102" height="6.32102" transform="rotate(-4.43819 719.864 231.634)" fill="black"/>
<rect x="722.115" y="260.624" width="6.32102" height="6.32102" transform="rotate(-4.43819 722.115 260.624)" fill="black"/>
<rect x="744.402" y="172.036" width="6.32102" height="6.32102" transform="rotate(-4.43819 744.402 172.036)" fill="black"/>
<rect x="746.652" y="201.025" width="6.32102" height="6.32102" transform="rotate(-4.43819 746.652 201.025)" fill="black"/>
<rect x="748.854" y="229.384" width="6.32102" height="6.32102" transform="rotate(-4.43819 748.854 229.384)" fill="black"/>
<rect x="751.104" y="258.374" width="6.32102" height="6.32102" transform="rotate(-4.43819 751.104 258.374)" fill="black"/>
<rect x="673.054" y="192.155" width="6.32102" height="6.32102" transform="rotate(-4.43819 673.054 192.155)" fill="black"/>
<rect x="675.255" y="220.515" width="6.32102" height="6.32102" transform="rotate(-4.43819 675.255 220.515)" fill="black"/>
<rect x="677.505" y="249.504" width="6.32102" height="6.32102" transform="rotate(-4.43819 677.505 249.504)" fill="black"/>
<rect x="679.755" y="278.494" width="6.32102" height="6.32102" transform="rotate(-4.43819 679.755 278.494)" fill="black"/>
<rect x="699.843" y="161.546" width="6.32102" height="6.32102" transform="rotate(-4.43819 699.843 161.546)" fill="black"/>
<rect x="702.044" y="189.905" width="6.32102" height="6.32102" transform="rotate(-4.43819 702.044 189.905)" fill="black"/>
<rect x="704.245" y="218.265" width="6.32102" height="6.32102" transform="rotate(-4.43819 704.245 218.265)" fill="black"/>
<rect x="706.495" y="247.254" width="6.32102" height="6.32102" transform="rotate(-4.43819 706.495 247.254)" fill="black"/>
<rect x="708.745" y="276.244" width="6.32102" height="6.32102" transform="rotate(-4.43819 708.745 276.244)" fill="black"/>
<rect x="728.832" y="159.296" width="6.32102" height="6.32102" transform="rotate(-4.43819 728.832 159.296)" fill="black"/>
<rect x="731.033" y="187.655" width="6.32102" height="6.32102" transform="rotate(-4.43819 731.033 187.655)" fill="black"/>
<rect x="733.234" y="216.015" width="6.32102" height="6.32102" transform="rotate(-4.43819 733.234 216.015)" fill="black"/>
<rect x="735.484" y="245.004" width="6.32102" height="6.32102" transform="rotate(-4.43819 735.484 245.004)" fill="black"/>
<rect x="737.734" y="273.994" width="6.32102" height="6.32102" transform="rotate(-4.43819 737.734 273.994)" fill="black"/>
<rect x="757.821" y="157.046" width="6.32102" height="6.32102" transform="rotate(-4.43819 757.821 157.046)" fill="black"/>
<rect x="760.022" y="185.405" width="6.32102" height="6.32102" transform="rotate(-4.43819 760.022 185.405)" fill="black"/>
<rect x="762.224" y="213.765" width="6.32102" height="6.32102" transform="rotate(-4.43819 762.224 213.765)" fill="black"/>
<rect x="764.474" y="242.754" width="6.32102" height="6.32102" transform="rotate(-4.43819 764.474 242.754)" fill="black"/>
<rect x="766.724" y="271.744" width="6.32102" height="6.32102" transform="rotate(-4.43819 766.724 271.744)" fill="black"/>
</g>
<mask id="mask1_144_3869" style="mask-type:alpha" maskUnits="userSpaceOnUse" x="167" y="205" width="114" height="114">
<path d="M202.631 205.219C187.794 203.711 174.544 214.516 173.036 229.352C171.527 244.189 182.332 257.439 197.169 258.947C182.332 257.439 169.082 268.244 167.573 283.08C166.065 297.917 176.87 311.167 191.706 312.675L245.435 318.137C260.271 319.646 273.521 308.841 275.03 294.004C276.538 279.168 265.733 265.918 250.897 264.409C265.733 265.918 278.983 255.113 280.492 240.276C282 225.44 271.195 212.19 256.359 210.681L202.631 205.219Z" fill="#F8D875"/>
</mask>
<g mask="url(#mask1_144_3869)">
<mask id="mask2_144_3869" style="mask-type:alpha" maskUnits="userSpaceOnUse" x="131" y="169" width="186" height="186">
<rect x="148.912" y="169.555" width="168.918" height="168.918" transform="rotate(5.80483 148.912 169.555)" fill="#D9D9D9"/>
</mask>
<g mask="url(#mask2_144_3869)">
<path d="M211.077 197.855C205.999 212.28 170.41 248.338 134.458 275.197C129.691 278.759 124.579 277.001 121.551 276.053C116.453 274.458 113.965 266.354 111.861 255.157C109.659 243.443 111.291 234.365 115.038 229.385C126.78 213.776 155.986 219.447 165.833 221.214C177.276 223.268 173.86 237.784 177.888 240.173C193.163 249.231 219.05 218.874 227.737 205.177C231.101 199.874 229.395 193.159 227.172 187.534C225.301 182.798 209.613 180.172 187.631 177.97C171.328 176.337 160.365 183.67 153.081 189.486C146.948 194.385 144.203 200.069 142.308 204.415C141.368 206.571 140.927 208.813 142.045 212.088C149.424 233.716 169.152 247.258 171.282 252.456C172.318 254.986 171.419 257.869 169.392 259.923C164.794 264.582 148.064 263.696 129.285 261.479C122.414 260.668 121.266 258.421 120.753 255.342C120.241 252.263 120.482 247.891 122.108 244.521C123.733 241.15 126.736 238.914 130.223 237.447C150.607 228.873 179.719 240.321 189.266 245.294C204.064 253.004 200.154 276.254 199.69 285.588C199.086 297.729 222.135 270.194 231.162 255.702C233.237 252.37 234.45 248.987 234.757 246.252C235.063 243.516 234.162 241.381 232.713 239.857C229.848 236.843 221.86 235.119 212.562 233.424C208.731 232.726 206.467 234.365 204.817 236.225C196.368 245.75 202.401 268.508 204.785 281.646C205.293 284.448 202.573 287.435 198.993 289.567C178.539 301.751 146.357 294.958 132.075 291.138C127.373 289.881 130.118 281.7 130.847 277.29C131.596 272.77 135.056 268.415 141.177 263.908C158.592 251.087 172.676 255.048 176.954 255.715C179.086 256.047 180.672 258.12 181.851 260.724C183.031 263.328 183.637 266.849 183.076 270.298C182.515 273.746 180.77 277.015 178.705 279.496C168.761 291.451 148.047 290.085 143.247 288.57C139.553 287.404 141.369 278.345 143.49 269.856C145.328 262.494 155.869 259.332 165.043 256.454C171.721 254.359 177.772 255.002 183.37 257.761C191.011 261.528 190.664 273.403 190.947 280.864C191.209 287.745 189.102 293.793 185.278 298.57C175.009 311.401 146.749 305.363 127.524 303.611C124.049 303.295 121.843 301.341 120.922 297.987C118.627 289.631 121.699 281.148 123.377 276.037C124.195 273.545 125.976 271.661 129.311 270.431C145.776 264.362 156.831 270.609 161.404 273.956C163.944 275.815 165.52 279.617 166.423 283.224C167.327 286.831 167.15 290.541 163.564 293.997C145.798 311.119 123.581 307.291 112.869 305.9C99.8069 304.204 113.261 276.547 116.332 272.572C123.642 263.112 139.862 269.084 143.952 271.11C148.683 273.455 149.791 280.095 151.332 284.949C152.915 289.929 152.411 294.847 150.271 298.844C143.33 311.809 121.24 306.982 112.668 304.503C109.191 303.497 109.133 299.319 109.331 296.091C109.53 292.863 110.407 289.768 112.983 286.739C124.813 272.823 152.705 276.757 168.488 280.859C175.422 282.661 176.208 296.412 176.506 308.609C176.697 316.411 174.137 322.673 170.271 328.625C161.882 341.54 130.703 336.917 118.241 333.662C115.749 333.011 116.69 327.779 117.979 324.29C120.648 317.067 128.376 312.422 138.072 308.379C171.748 294.336 208.683 308.359 219.198 316.953C222.079 319.308 223.327 323.916 225.41 326.226C227.494 328.535 229.632 329.102 232.154 328.382C237.948 326.73 242.444 320.372 245.862 314.459C248.554 309.802 249.167 304.441 248.89 299.039C248.631 293.98 242.778 290.712 236.957 287.735C230.314 284.336 223.846 283.299 218.328 284.539C203.603 287.847 197.418 300.339 186.563 302.361C181.494 303.305 181.711 288.189 183.5 274.089C184.78 263.998 194.702 256.226 206.088 248.671C227.135 234.707 259.741 242.884 291.719 252.001C298.055 253.807 300.341 256.466 302.448 256.17C304.555 255.874 306.166 253.258 305.936 249.121C305.38 239.14 299.632 232.081 294.656 228.337C274.963 213.518 247.823 208.511 237.643 207.427C219.007 205.444 216.067 245.525 217.749 255.376C220.525 271.634 210.346 288.95 207.666 292.75C205.011 296.515 199.023 296.984 190.737 296.899C177.128 296.76 166.923 292.04 163.938 287.358C157.367 277.052 176.978 255.053 196.159 238.715C213.79 223.696 237.215 225.012 254.483 225.489C257.978 225.585 260.026 228.273 262.424 228.595C264.821 228.918 267.37 227.68 268.843 225.467C270.316 223.253 270.636 220.102 270.171 217.369C269.706 214.635 268.446 212.414 265.921 210.49C260.213 206.137 242.84 203.716 222.126 202.484C211.703 201.865 208.535 209.987 205.164 212.806C201.364 215.984 190.047 210.006 178.733 201.588C174.527 198.457 175.502 195.263 178.585 193.213C198.461 180.004 226.492 188.159 237.182 190.663C241.133 191.588 240.851 195.287 240.257 198.075C237.75 209.836 226.166 220.048 210.168 228.959C194.888 237.471 169.274 234.489 156.635 229.196C154.626 228.355 155.537 224.93 156.604 222.269C159.012 216.265 164.489 213.081 169.401 211.985C171.978 211.41 174.805 211.175 177.106 211.63C179.407 212.084 181.116 213.333 181.863 215.287C182.609 217.242 182.343 219.865 181.622 222.14C180.9 224.415 179.733 226.261 177.373 227.846C163.478 237.18 141.228 232.272 129.644 227.039C124.694 224.802 123.476 218.249 122.777 211.816C122 204.677 125.097 198.283 129.747 193.615C144.384 178.922 168.424 187.367 172.744 188.667C174.995 189.344 176.719 191.653 177.89 194.65C179.061 197.647 179.462 201.67 178.267 205.46C177.073 209.25 174.271 212.685 170.019 215.173C149.977 226.901 130.033 218.591 125.187 215.588C120.351 212.591 123.116 203.707 123.922 197.395C124.664 191.58 127.843 186.415 134.793 181.043C157.115 163.79 185.936 166.666 198.466 168.222C203.518 168.849 204.643 176.277 208.995 178.908C216.751 183.597 230.667 176.734 244.163 182.685C253.32 186.722 257.51 206.287 259.986 215.347C262.461 224.408 260.626 225.813 256.07 228.215C244.471 234.33 235.957 239.496 234.859 243.871C230.024 263.135 259.945 284.936 264.916 286.068C270.887 287.427 276.217 282.205 280.302 277.442C285.92 270.892 288.153 260.297 288.762 250.513C289.757 234.544 270.035 221.005 261.499 214.21C259.758 212.825 258.738 210.654 261.589 208.237C281.685 191.207 316.091 197.174 339.101 199.501C347.774 200.378 350.138 202.322 350.661 209.294C352.109 228.604 345.086 247.565 338.675 258.578C328.793 275.553 293.152 294.245 279.096 308.456C277.625 309.944 281.497 312.357 283.858 313.743C288.683 316.576 294.819 316.016 299.954 313.859C311.385 309.061 307.398 283.864 301.708 269.594C294.782 252.225 282.831 248.714 279.705 245.672C269.474 235.716 317.453 244.368 321.188 247.661C325.04 251.056 322.443 264.844 319.056 281.605C314.486 304.21 288.299 317.575 257.642 336.364C251.853 339.912 251.233 342.505 252.239 344.177C254.698 348.265 264.194 348.84 272.412 348.841C289.013 348.844 281.055 308.38 277.304 299.133C273.561 289.906 259.871 290.461 255.341 290.248C249.5 289.973 268.803 294.678 272.333 299.022C274.028 301.109 274.204 303.88 272.953 307.116C269.967 314.838 261.572 319.841 253.037 322.857C227.375 331.926 199.461 322.972 197.548 318.936C196.577 316.887 197.016 314.306 197.454 311.956C197.893 309.605 198.677 307.427 202.376 304.868C211.943 298.249 225.832 295.705 236.374 296.855C240.93 297.352 242.284 303.409 243.078 306.849C243.872 310.289 243.658 312.395 242.416 314.344C236.38 323.815 217.477 323.919 187.883 321.182C181.972 320.635 180.536 317.901 180.074 315.435C179.611 312.97 180.32 309.945 181.789 307.737C183.258 305.529 185.466 304.229 187.707 303.59C189.947 302.952 192.152 303.014 193.34 304.296C196.056 307.229 193.965 315.001 191.902 322.716C188.376 335.9 163.707 342.515 134.489 348.191C115.024 351.973 98.7729 348.751 91.1146 346.119C87.7544 344.964 87.5778 340.2 87.8211 336.926C88.2737 330.836 94.4397 325.65 102.093 321.049C118.298 311.309 142.266 311.286 154.413 313.331C156.901 313.75 156.712 318.137 156.195 320.958C155.677 323.779 154.182 326.234 152.289 326.697C150.396 327.16 148.149 325.557 146.828 323.324C145.507 321.091 145.178 318.277 145.672 315.606C146.165 312.936 147.491 310.493 150.146 309.011C169.269 298.33 196.92 311.018 200.652 313.518C202.489 314.748 203.161 317.187 202.007 319.115C199.076 324.011 184.577 326.24 169.726 327.512C164.502 327.959 164.007 324.081 164.525 321.069C165.044 318.058 166.6 315.027 169.661 312.981C176.444 308.447 186.264 308.684 193.996 309.187C200.18 309.589 202.751 315.988 204.888 318.546C216.043 331.896 250.391 316.17 256.177 317.922C258.872 318.739 260.44 321.041 261.528 323.037C262.616 325.032 263.012 327.067 262.166 328.403C261.319 329.738 259.217 330.312 257.14 329.702C255.064 329.091 253.077 327.278 252.741 324.87C252.404 322.462 253.779 319.513 258.1 318.259C269.21 315.036 280.569 319.413 286.125 322.912C288.667 324.513 288.772 328.057 283.199 329.228C277.626 330.399 265.893 329.677 259.669 327.94C253.444 326.203 253.083 323.473 253.428 320.991C254.096 316.197 259.977 310.658 268.87 304.709C289.488 290.914 326.502 299.064 355.194 305.242C359.65 306.201 359.156 309.676 357.716 311.954C350.552 323.294 308.881 319.351 263.122 310.174C255.554 308.656 252.927 306.06 251.222 303.129C249.517 300.198 249.034 296.156 249.498 292.235C252.289 268.629 285.622 248.837 301.09 245.194C305.091 244.251 309.396 245.016 312.231 243.552C315.066 242.087 316.402 239.059 316.324 236.132C315.706 212.943 266.469 205.377 259.714 203.867C256.801 203.216 254.679 204.508 253.132 206.553C241.084 222.485 247.585 252.234 248.836 261.044C249.162 263.339 247.384 265.667 245.708 266.672C244.032 267.676 241.835 267.288 240.867 265.88C239.899 264.471 240.226 262.054 242.236 260.453C260.569 245.845 297.399 262.024 303.075 265.607C305.469 267.119 305.311 269.974 304.008 272.806C296.869 288.327 266.426 286.936 235.771 283.386C230.277 282.749 229.994 279.063 229.969 276.648C229.865 266.715 252.684 253.966 288.198 235.655C294.903 232.198 297.185 230.662 298.547 228.788C301.133 225.231 270.52 217.968 224.698 213.29C209.105 211.698 208.742 217.588 209.543 222.518C213.368 246.063 227.488 259.991 228.89 264.119C229.58 266.151 229.078 268.359 227.289 270.471C218.085 281.34 198.833 277.767 186.104 275.365C181.28 274.455 180.487 271.473 180.127 268.905C178.615 258.106 184.643 246.159 195.937 231.046C198.67 227.388 201.675 225.333 203.306 223.047C204.936 220.761 205.469 218.612 203.704 216.978C193.109 207.168 166.819 214.272 146.99 219.988C143.637 220.955 142.758 224.196 142.541 226.772C141.652 237.339 149.075 243.859 150.608 249.116C151.352 251.668 149.857 254.382 148.348 256.033C145.514 259.135 139.899 259.243 134.751 258.758C119.368 257.311 128.634 211.808 138.349 191.022C145.321 176.107 163.343 173.263 182.604 173.048C220.716 172.623 245.558 180.759 246.595 186.286C249.399 201.231 244.702 220.956 235.885 234.689C225.889 250.259 213.775 253.206 211.73 257.69C210.702 259.943 211.157 262.683 212.169 265.209C216.483 275.983 240.262 279.246 257.343 279.724C260.072 279.8 261.888 277.722 263.594 275.414C274.491 260.669 270.26 233.813 267.132 222.727C266.455 220.325 267.841 217.927 270.026 216.909C275.147 214.524 283.347 218.106 291.864 221.891C296.337 223.878 300.554 227.165 302.249 232.33C309.823 255.411 274.779 281.441 264.28 297.014C256.311 308.835 284.253 310.289 286.273 310.651C286.528 310.697 283.48 309.517 280.945 309.605C269.514 310.001 257.934 323.691 236.128 333.074C216.867 341.361 196.278 341.164 184.27 338.881C179.447 337.964 178.41 333.55 178.333 330.705C178.256 327.86 179.477 325.7 182.265 323.722C188.802 319.085 200.38 318.537 210.76 319.961C214.703 320.501 215.459 323.004 215.308 324.976C213.964 342.61 164.823 339.698 150.42 338.822C145.173 338.503 144.5 335.489 144.722 333.164C144.945 330.839 146.183 328.539 148.014 326.852C159.075 316.66 191.786 328.507 223.723 340.59C245.791 348.938 256.129 363.943 261.383 365.751C267.713 367.929 276.538 362.27 284 357.203C287.141 355.071 287.569 352.061 287.31 349.48C286.26 339.016 263.267 321.048 255.661 303.247C251.401 293.277 299.123 279.105 316.715 264.253C327.09 255.493 301.076 241.916 297.685 236.781C294.72 232.29 300.232 225.869 303.873 220.5C315.646 203.14 245.252 189.854 232.38 189.589C212.666 189.183 222.645 239.201 219.687 269.282C218.67 279.622 212.901 284.731 206.766 288.764C197.547 294.824 187.503 295.26 182.235 295.169C179.747 295.125 177.656 294.584 175.752 292.086C166.079 279.395 168.941 265.873 168.19 255.166C167.034 238.705 203.717 230.219 231.335 224.495C242.931 222.092 254.128 223.79 263.906 225.278C278.862 227.554 297.547 259.386 311.106 284.921C316.422 294.933 314.936 314.497 315.71 334.823C315.999 342.404 322.018 343.62 325.991 344.516C329.964 345.412 333.227 345.744 335.508 344.89C337.789 344.037 338.988 341.987 339.64 339.2C340.291 336.413 340.359 332.949 339.499 330.067C335.763 317.552 317.948 314.369 311.276 313.84C299.487 312.906 306.244 338.343 300.731 347.179C295.345 355.812 283.094 349.958 278.842 348.865C276.716 348.319 275.093 346.503 275.448 344.292C277.615 330.837 309.568 331.302 335.341 333.928C339.385 334.34 339.093 338.208 337.366 340.516C335.639 342.824 332.135 344.758 328.602 345.679C325.068 346.6 321.613 346.449 318.773 345.297C315.933 344.145 313.812 341.996 312.591 338.535C305.363 318.046 317.025 291.899 325.773 278.397C340.08 256.311 366.41 249.262 368.378 244.818C369.339 242.648 368.732 240.132 367.177 237.77C359.54 226.168 346.886 224.58 341.512 223.8C322.477 221.035 308.742 257.567 304.542 256.227C299.698 254.681 293.573 242.771 283.728 229.969C268.239 209.829 233.948 219.974 227.227 220.993C214.446 222.931 208.969 249.538 208.35 260.161C208.025 265.74 222.57 267.735 236.67 269.334C246.516 270.451 254.552 266.772 262.906 260.123C282.015 244.914 284.355 224.221 285.819 212.609C287.914 195.982 244.484 191.128 234.641 191.771C224.869 192.409 216.253 207.402 202.08 216.911C197.447 220.019 188.379 208.572 178.504 200.101C156.671 181.37 163.623 272.466 170.348 285.228C179 301.647 138.814 310.552 138.094 314.786C137.738 316.885 138.73 319.001 140.417 320.786C148.084 328.899 186.813 330.293 221.235 330.183C230.803 330.152 238.28 324.497 245.11 320.175C257.102 312.587 261.533 282.598 262.551 256.892C263.365 236.33 260.513 218.74 262.266 210.517C263.648 204.037 274.448 200.012 285.869 196.253C290.485 194.734 293.027 195.096 295.749 196.724C310.357 205.462 312.277 221.815 312.65 226.948C314.06 246.326 282.97 263.191 280.571 272.751C279.924 275.33 281.595 278.333 282.963 280.575C284.331 282.817 286.179 284.285 287.905 284.273C289.632 284.261 291.179 282.724 292.418 280.586C295.062 276.024 295.724 236.723 295.915 180.653C295.983 160.847 295.377 158.598 296.626 156.663C302.732 147.207 329.516 153.325 345.294 161.304C362.392 169.95 353.42 204.001 347.013 230.857C336.481 275.006 325.515 296.544 324.859 313.961C324.299 328.821 300.184 324.976 291.186 330.25C268.659 343.453 229.038 323.536 224.485 323.206C222.234 323.042 220.124 324.445 218.516 325.929C211.537 332.368 211.692 345.578 205.688 352.767C202.574 356.496 186.077 354.837 166.353 351.16C159.372 349.859 159.674 345.466 160.679 342.783C164.6 332.324 183.4 330.375 214.697 330.14C227.126 330.046 231.227 349.858 242.551 356.988C245.13 358.611 248.466 357.578 251.001 356.542C255.568 353.545 260.554 348.047 265.353 341.656C267.259 338.741 268.092 336.495 268.332 330.73" stroke="black" stroke-width="2.43631" stroke-linecap="round"/>
</g>
</g>
<g filter="url(#filter0_d_144_3869)">
<circle cx="246.422" cy="102.5" r="19.5" fill="black"/>
</g>
<g filter="url(#filter1_d_144_3869)">
<circle cx="692.422" cy="50.5" r="19.5" fill="black"/>
</g>
<defs>
<filter id="filter0_d_144_3869" x="223.802" y="83" width="45.24" height="45.24" filterUnits="userSpaceOnUse" color-interpolation-filters="sRGB">
<feFlood flood-opacity="0" result="BackgroundImageFix"/>
<feColorMatrix in="SourceAlpha" type="matrix" values="0 0 0 0 0 0 0 0 0 0 0 0 0 0 0 0 0 0 127 0" result="hardAlpha"/>
<feOffset dy="3.12"/>
<feGaussianBlur stdDeviation="1.56"/>
<feComposite in2="hardAlpha" operator="out"/>
<feColorMatrix type="matrix" values="0 0 0 0 0 0 0 0 0 0 0 0 0 0 0 0 0 0 0.25 0"/>
<feBlend mode="normal" in2="BackgroundImageFix" result="effect1_dropShadow_144_3869"/>
<feBlend mode="normal" in="SourceGraphic" in2="effect1_dropShadow_144_3869" result="shape"/>
</filter>
<filter id="filter1_d_144_3869" x="669.802" y="31" width="45.24" height="45.24" filterUnits="userSpaceOnUse" color-interpolation-filters="sRGB">
<feFlood flood-opacity="0" result="BackgroundImageFix"/>
<feColorMatrix in="SourceAlpha" type="matrix" values="0 0 0 0 0 0 0 0 0 0 0 0 0 0 0 0 0 0 127 0" result="hardAlpha"/>
<feOffset dy="3.12"/>
<feGaussianBlur stdDeviation="1.56"/>
<feComposite in2="hardAlpha" operator="out"/>
<feColorMatrix type="matrix" values="0 0 0 0 0 0 0 0 0 0 0 0 0 0 0 0 0 0 0.25 0"/>
<feBlend mode="normal" in2="BackgroundImageFix" result="effect1_dropShadow_144_3869"/>
<feBlend mode="normal" in="SourceGraphic" in2="effect1_dropShadow_144_3869" result="shape"/>
</filter>
</defs>
</svg>
