<svg width="1031" height="550" viewBox="0 0 1031 550" fill="none" xmlns="http://www.w3.org/2000/svg">
<rect x="63" y="66.0605" width="414.986" height="414.986" rx="24.3631" fill="#F0DFD1"/>
<rect x="547.015" y="62" width="414.986" height="414.986" rx="24.3631" fill="#F0DFD1"/>
<path d="M643.336 319.398C631.595 353.197 657.967 390.737 672.585 414.83C670.555 381.533 691.236 347.001 773.273 368.124C871.277 393.36 859.775 320.219 857.339 308.85C854.903 297.48 841.671 277.946 846.768 255.648C850.017 241.436 865.036 225.203 861.399 201.246C854.497 155.768 818.75 151.699 791.951 165.911C779.691 172.412 758.655 185.807 712.365 165.911C649.363 138.831 634.259 200.019 648.222 233.315C661.334 264.581 656.735 280.823 643.336 319.398Z" fill="#F3CCCD" stroke="black" stroke-width="2.43631" stroke-linecap="square"/>
<path d="M735.754 191.056C743.92 182.309 757.786 182.309 765.952 191.056V191.056C770.807 196.256 777.996 198.592 784.981 197.238V197.238C796.728 194.962 807.946 203.112 809.411 214.988V214.988C810.283 222.049 814.726 228.165 821.172 231.175V231.175C832.014 236.238 836.299 249.426 830.504 259.895V259.895C827.058 266.119 827.058 273.679 830.504 279.903V279.903C836.299 290.372 832.014 303.56 821.172 308.623V308.623C814.726 311.633 810.283 317.749 809.411 324.81V324.81C807.946 336.686 796.728 344.836 784.981 342.56V342.56C777.996 341.206 770.807 343.542 765.952 348.742V348.742C757.786 357.489 743.92 357.489 735.754 348.742V348.742C730.899 343.542 723.71 341.206 716.726 342.56V342.56C704.978 344.836 693.76 336.686 692.295 324.81V324.81C691.424 317.749 686.98 311.633 680.534 308.623V308.623C669.692 303.56 665.408 290.372 671.203 279.903V279.903C674.648 273.679 674.648 266.119 671.203 259.895V259.895C665.408 249.426 669.692 236.238 680.534 231.175V231.175C686.98 228.165 691.424 222.049 692.295 214.988V214.988C693.76 203.112 704.978 194.962 716.726 197.238V197.238C723.71 198.592 730.899 196.256 735.754 191.056V191.056Z" fill="#69A1AE"/>
<path d="M737.948 202.511C744.927 195.036 756.779 195.036 763.758 202.511V202.511C767.908 206.956 774.052 208.953 780.022 207.796V207.796C790.063 205.85 799.651 212.816 800.903 222.967V222.967C801.647 229.002 805.445 234.229 810.955 236.802V236.802C820.221 241.129 823.883 252.401 818.93 261.349V261.349C815.985 266.668 815.985 273.129 818.93 278.449V278.449C823.883 287.397 820.221 298.669 810.955 302.996V302.996C805.445 305.569 801.647 310.796 800.903 316.831V316.831C799.651 326.982 790.063 333.948 780.022 332.002V332.002C774.052 330.845 767.908 332.842 763.758 337.286V337.286C756.779 344.762 744.927 344.762 737.948 337.286V337.286C733.798 332.842 727.654 330.845 721.684 332.002V332.002C711.643 333.948 702.056 326.982 700.803 316.831V316.831C700.059 310.796 696.261 305.569 690.752 302.996V302.996C681.485 298.669 677.823 287.397 682.776 278.449V278.449C685.721 273.129 685.721 266.668 682.776 261.349V261.349C677.823 252.401 681.485 241.129 690.752 236.802V236.802C696.261 234.229 700.059 229.002 700.803 222.967V222.967C702.056 212.816 711.643 205.85 721.684 207.796V207.796C727.654 208.953 733.798 206.956 737.948 202.511V202.511Z" fill="#8FC2C6"/>
<path d="M739.625 211.272C745.697 204.768 756.008 204.768 762.08 211.272V211.272C765.69 215.139 771.036 216.876 776.229 215.87V215.87C784.965 214.177 793.306 220.237 794.396 229.068V229.068C795.043 234.318 798.347 238.866 803.141 241.104V241.104C811.203 244.87 814.389 254.676 810.08 262.46V262.46C807.518 267.089 807.518 272.71 810.08 277.338V277.338C814.389 285.123 811.203 294.929 803.141 298.694V298.694C798.347 300.932 795.043 305.48 794.396 310.73V310.73C793.306 319.561 784.965 325.622 776.229 323.929V323.929C771.036 322.923 765.69 324.659 762.08 328.526V328.526C756.008 335.03 745.697 335.03 739.625 328.526V328.526C736.015 324.659 730.669 322.923 725.475 323.929V323.929C716.74 325.622 708.398 319.561 707.309 310.73V310.73C706.661 305.48 703.357 300.932 698.564 298.694V298.694C690.502 294.929 687.316 285.123 691.625 277.338V277.338C694.187 272.71 694.187 267.089 691.625 262.46V262.46C687.316 254.676 690.502 244.87 698.564 241.104V241.104C703.357 238.866 706.661 234.318 707.309 229.068V229.068C708.398 220.237 716.74 214.177 725.475 215.87V215.87C730.669 216.876 736.015 215.139 739.625 211.272V211.272Z" fill="#BFD8DC"/>
<path d="M839.121 169.03L825.74 169.03C822.468 169.03 820.436 165.465 822.099 162.641L842.625 127.783C845.176 123.449 851.805 125.263 851.805 130.295L851.805 152.119L865.186 152.119C868.458 152.119 870.49 155.684 868.827 158.508L848.301 193.367C845.749 197.7 839.121 195.887 839.121 190.855L839.121 169.03Z" fill="#4643FF"/>
<path d="M356.169 165.949H176.694C168.621 165.949 162.076 172.482 162.076 180.556L162.076 351.109C162.076 415.103 194.425 421.898 201.057 417.296C183.516 382.862 199.027 366.945 214.051 366.945H356.169C364.242 366.945 370.787 360.401 370.787 352.327V180.567C370.787 172.494 364.242 165.949 356.169 165.949Z" fill="#FDFAE7" stroke="black" stroke-width="2.43631" stroke-linecap="square"/>
<path d="M229.279 192.749C208.759 192.749 192.125 209.383 192.125 229.903C192.125 250.422 208.759 267.057 229.279 267.057C208.759 267.057 192.125 283.691 192.125 304.21C192.125 324.73 208.759 341.364 229.279 341.364H303.586C324.106 341.364 340.74 324.73 340.74 304.21C340.74 283.691 324.106 267.057 303.586 267.057C324.106 267.057 340.74 250.422 340.74 229.903C340.74 209.383 324.106 192.749 303.586 192.749H229.279Z" fill="#E7A46D"/>
<path d="M234.557 203.307C216.953 203.307 202.682 217.578 202.682 235.182C202.682 252.786 216.953 267.057 234.557 267.057C216.953 267.057 202.682 281.328 202.682 298.932C202.682 316.536 216.953 330.807 234.557 330.807H298.307C315.911 330.807 330.182 316.536 330.182 298.932C330.182 281.328 315.911 267.057 298.307 267.057C315.911 267.057 330.182 252.786 330.182 235.182C330.182 217.578 315.911 203.307 298.307 203.307H234.557Z" fill="#D58705"/>
<path d="M239.43 213.051C224.517 213.051 212.428 225.14 212.428 240.053C212.428 254.966 224.517 267.056 239.43 267.056C224.517 267.056 212.428 279.145 212.428 294.058C212.428 308.971 224.517 321.061 239.43 321.061H293.435C308.348 321.061 320.438 308.971 320.438 294.058C320.438 279.145 308.348 267.056 293.435 267.056C308.348 267.056 320.438 254.966 320.438 240.053C320.438 225.14 308.348 213.051 293.435 213.051H239.43Z" fill="#F8D875"/>
<path d="M358.625 131.107C366.084 127.085 372.531 130.146 376.165 134.96C379.767 139.731 378.812 147.934 371.834 154.088C373.806 152.487 381.604 149.129 387.645 153.14C393.906 157.296 394.3 163.16 392.562 168.062C389.834 175.753 384.001 181.278 378.678 185.721C383.392 184.509 390.863 183.532 396.119 187.949C401.375 192.366 401.641 201.072 391.444 207.388C381.247 213.704 358.165 221.768 350.585 205.169C347.546 198.514 351.401 191.254 354.045 187.496C355.19 185.869 358.754 181.187 364.685 175.555C356.925 181.623 342.555 188.612 334.517 181.245C318.442 166.511 345.279 138.303 358.625 131.107Z" fill="#4643FF"/>
<mask id="mask0_144_3867" style="mask-type:alpha" maskUnits="userSpaceOnUse" x="689" y="206" width="124" height="128">
<path d="M739.625 211.272C745.697 204.768 756.008 204.768 762.08 211.272V211.272C765.69 215.139 771.036 216.876 776.229 215.87V215.87C784.965 214.177 793.306 220.237 794.396 229.068V229.068C795.043 234.318 798.347 238.866 803.141 241.104V241.104C811.203 244.87 814.389 254.676 810.08 262.46V262.46C807.518 267.089 807.518 272.71 810.08 277.338V277.338C814.389 285.123 811.203 294.929 803.141 298.694V298.694C798.347 300.932 795.043 305.48 794.396 310.73V310.73C793.306 319.561 784.965 325.622 776.229 323.929V323.929C771.036 322.923 765.69 324.659 762.08 328.526V328.526C756.008 335.03 745.697 335.03 739.625 328.526V328.526C736.015 324.659 730.669 322.923 725.475 323.929V323.929C716.74 325.622 708.398 319.561 707.309 310.73V310.73C706.661 305.48 703.357 300.932 698.564 298.694V298.694C690.502 294.929 687.316 285.123 691.625 277.338V277.338C694.187 272.71 694.187 267.089 691.625 262.46V262.46C687.316 254.676 690.502 244.87 698.564 241.104V241.104C703.357 238.866 706.661 234.318 707.309 229.068V229.068C708.398 220.237 716.74 214.177 725.475 215.87V215.87C730.669 216.876 736.015 215.139 739.625 211.272V211.272Z" fill="#BFD8DC"/>
</mask>
<g mask="url(#mask0_144_3867)">
<rect x="689.133" y="207.367" width="6.32102" height="6.32102" fill="black"/>
<rect x="689.133" y="235.812" width="6.32102" height="6.32102" fill="black"/>
<rect x="689.133" y="264.256" width="6.32102" height="6.32102" fill="black"/>
<rect x="689.133" y="293.332" width="6.32102" height="6.32102" fill="black"/>
<rect x="689.133" y="322.409" width="6.32102" height="6.32102" fill="black"/>
<rect x="718.209" y="207.367" width="6.32102" height="6.32102" fill="black"/>
<rect x="703.671" y="221.273" width="6.32102" height="6.32102" fill="black"/>
<rect x="703.671" y="250.35" width="6.32102" height="6.32102" fill="black"/>
<rect x="703.671" y="278.794" width="6.32102" height="6.32102" fill="black"/>
<rect x="703.671" y="307.871" width="6.32102" height="6.32102" fill="black"/>
<rect x="732.748" y="221.273" width="6.32102" height="6.32102" fill="black"/>
<rect x="732.748" y="250.35" width="6.32102" height="6.32102" fill="black"/>
<rect x="732.748" y="278.794" width="6.32102" height="6.32102" fill="black"/>
<rect x="732.748" y="307.871" width="6.32102" height="6.32102" fill="black"/>
<rect x="761.825" y="221.273" width="6.32102" height="6.32102" fill="black"/>
<rect x="761.825" y="250.35" width="6.32102" height="6.32102" fill="black"/>
<rect x="761.825" y="278.794" width="6.32102" height="6.32102" fill="black"/>
<rect x="761.825" y="307.871" width="6.32102" height="6.32102" fill="black"/>
<rect x="790.901" y="221.273" width="6.32102" height="6.32102" fill="black"/>
<rect x="790.901" y="250.35" width="6.32102" height="6.32102" fill="black"/>
<rect x="790.901" y="278.794" width="6.32102" height="6.32102" fill="black"/>
<rect x="790.901" y="307.871" width="6.32102" height="6.32102" fill="black"/>
<rect x="718.209" y="235.812" width="6.32102" height="6.32102" fill="black"/>
<rect x="718.209" y="264.256" width="6.32102" height="6.32102" fill="black"/>
<rect x="718.209" y="293.332" width="6.32102" height="6.32102" fill="black"/>
<rect x="718.209" y="322.409" width="6.32102" height="6.32102" fill="black"/>
<rect x="747.286" y="207.367" width="6.32102" height="6.32102" fill="black"/>
<rect x="747.286" y="235.812" width="6.32102" height="6.32102" fill="black"/>
<rect x="747.286" y="264.256" width="6.32102" height="6.32102" fill="black"/>
<rect x="747.286" y="293.332" width="6.32102" height="6.32102" fill="black"/>
<rect x="747.286" y="322.409" width="6.32102" height="6.32102" fill="black"/>
<rect x="776.362" y="207.367" width="6.32102" height="6.32102" fill="black"/>
<rect x="776.362" y="235.812" width="6.32102" height="6.32102" fill="black"/>
<rect x="776.362" y="264.256" width="6.32102" height="6.32102" fill="black"/>
<rect x="776.362" y="293.332" width="6.32102" height="6.32102" fill="black"/>
<rect x="776.362" y="322.409" width="6.32102" height="6.32102" fill="black"/>
<rect x="805.439" y="207.367" width="6.32102" height="6.32102" fill="black"/>
<rect x="805.439" y="235.812" width="6.32102" height="6.32102" fill="black"/>
<rect x="805.439" y="264.256" width="6.32102" height="6.32102" fill="black"/>
<rect x="805.439" y="293.332" width="6.32102" height="6.32102" fill="black"/>
<rect x="805.439" y="322.409" width="6.32102" height="6.32102" fill="black"/>
</g>
<mask id="mask1_144_3867" style="mask-type:alpha" maskUnits="userSpaceOnUse" x="212" y="213" width="109" height="109">
<path d="M239.43 213.051C224.517 213.051 212.428 225.14 212.428 240.053C212.428 254.966 224.517 267.056 239.43 267.056C224.517 267.056 212.428 279.145 212.428 294.058C212.428 308.971 224.517 321.061 239.43 321.061H293.435C308.348 321.061 320.438 308.971 320.438 294.058C320.438 279.145 308.348 267.056 293.435 267.056C308.348 267.056 320.438 254.966 320.438 240.053C320.438 225.14 308.348 213.051 293.435 213.051H239.43Z" fill="#F8D875"/>
</mask>
<g mask="url(#mask1_144_3867)">
<mask id="mask2_144_3867" style="mask-type:alpha" maskUnits="userSpaceOnUse" x="182" y="183" width="170" height="169">
<rect x="182.38" y="183.003" width="168.918" height="168.918" fill="#D9D9D9"/>
</mask>
<g mask="url(#mask2_144_3867)">
<path d="M247.088 204.871C243.495 219.736 211.736 259.209 178.685 289.566C174.302 293.591 169.039 292.359 165.93 291.723C160.697 290.651 157.402 282.84 154.176 271.914C150.801 260.483 151.507 251.286 154.731 245.952C164.834 229.236 194.463 231.924 204.439 232.686C216.031 233.572 214.1 248.359 218.349 250.328C234.463 257.795 257.146 224.976 264.404 210.47C267.214 204.854 264.838 198.347 262.057 192.975C259.716 188.453 243.844 187.427 221.751 187.459C205.367 187.483 195.201 195.887 188.543 202.411C182.937 207.905 180.781 213.837 179.335 218.352C178.618 220.593 178.407 222.868 179.849 226.013C189.378 246.784 210.374 258.261 213.019 263.217C214.307 265.629 213.704 268.588 211.894 270.837C207.791 275.937 191.057 276.748 172.15 276.441C165.233 276.329 163.863 274.21 163.042 271.199C162.221 268.188 162.019 263.814 163.295 260.296C164.571 256.778 167.332 254.249 170.653 252.438C190.066 241.846 220.186 250.291 230.187 254.273C245.689 260.446 244.15 283.973 244.633 293.306C245.26 305.445 265.406 275.721 272.92 260.39C274.648 256.865 275.513 253.377 275.541 250.624C275.569 247.872 274.457 245.839 272.862 244.469C269.706 241.76 261.584 240.853 252.163 240.108C248.281 239.801 246.195 241.66 244.741 243.677C237.299 254.008 245.602 276.039 249.303 288.869C250.092 291.605 247.688 294.852 244.342 297.335C225.225 311.525 192.521 308.022 177.926 305.666C173.121 304.891 175.024 296.475 175.304 292.013C175.591 287.441 178.593 282.758 184.228 277.655C200.256 263.138 214.668 265.655 218.992 265.885C221.147 266 222.934 267.902 224.371 270.373C225.808 272.845 226.766 276.287 226.557 279.774C226.348 283.262 224.943 286.69 223.14 289.368C214.456 302.267 193.709 303.003 188.781 301.981C184.988 301.194 185.879 291.999 187.13 283.338C188.214 275.828 198.381 271.616 207.217 267.826C213.648 265.066 219.734 265.094 225.582 267.273C233.565 270.247 234.421 282.096 235.457 289.49C236.413 296.309 234.929 302.54 231.608 307.679C222.689 321.482 193.964 318.334 174.66 318.536C171.17 318.572 168.778 316.851 167.522 313.608C164.394 305.527 166.593 296.777 167.745 291.522C168.307 288.961 169.888 286.906 173.082 285.345C188.848 277.641 200.479 282.738 205.367 285.606C208.081 287.198 210.034 290.822 211.298 294.319C212.561 297.816 212.761 301.524 209.543 305.326C193.6 324.157 171.109 322.595 160.312 322.295C147.145 321.929 157.732 293.053 160.386 288.788C166.702 278.637 183.443 282.937 187.716 284.54C192.66 286.394 194.434 292.888 196.459 297.561C198.536 302.356 198.533 307.299 196.808 311.492C191.214 325.092 168.749 322.525 159.97 320.925C156.409 320.276 155.929 316.126 155.8 312.894C155.67 309.662 156.231 306.495 158.487 303.22C168.849 288.18 196.996 289.272 213.112 291.757C220.193 292.849 222.366 306.449 223.896 318.553C224.875 326.296 222.962 332.786 219.717 339.098C212.677 352.795 181.191 351.349 168.464 349.371C165.919 348.975 166.325 343.676 167.255 340.073C169.18 332.618 176.398 327.215 185.636 322.212C217.719 304.835 255.883 315.051 267.213 322.537C270.318 324.589 272.025 329.047 274.332 331.134C276.638 333.221 278.822 333.568 281.259 332.597C286.856 330.367 290.686 323.587 293.488 317.359C295.695 312.453 295.763 307.058 294.941 301.712C294.172 296.705 288.018 294.046 281.926 291.672C274.973 288.963 268.433 288.585 263.069 290.377C248.754 295.157 243.864 308.211 233.27 311.32C228.323 312.773 227.01 297.712 227.363 283.504C227.616 273.335 236.701 264.598 247.265 255.931C266.791 239.91 300.057 244.748 332.793 250.583C339.279 251.739 341.822 254.153 343.889 253.646C345.955 253.138 347.293 250.372 346.646 246.28C345.083 236.406 338.651 229.965 333.321 226.743C312.231 213.992 284.723 211.756 274.486 211.707C255.745 211.619 256.874 251.792 259.544 261.422C263.95 277.316 255.574 295.573 253.292 299.625C251.032 303.639 245.122 304.711 236.87 305.465C223.316 306.703 212.686 303.039 209.243 298.683C201.663 289.094 218.949 265.225 236.379 247.03C252.401 230.306 275.838 229.245 293.066 227.973C296.553 227.716 298.863 230.183 301.281 230.261C303.698 230.339 306.109 228.849 307.351 226.499C308.592 224.148 308.592 220.98 307.853 218.308C307.114 215.635 305.635 213.553 302.929 211.894C296.81 208.141 279.281 207.489 258.548 208.359C248.117 208.797 245.786 217.198 242.717 220.343C239.258 223.889 227.395 219.087 215.288 211.856C210.786 209.167 211.433 205.89 214.294 203.54C232.732 188.387 261.443 193.666 272.332 195.076C276.356 195.597 276.449 199.305 276.14 202.138C274.836 214.093 264.344 225.424 249.33 235.908C234.989 245.921 209.205 245.546 196.096 241.558C194.011 240.924 194.571 237.425 195.364 234.669C197.152 228.452 202.279 224.731 207.055 223.144C209.561 222.311 212.35 221.791 214.685 222.011C217.02 222.231 218.846 223.3 219.787 225.169C220.727 227.038 220.727 229.675 220.24 232.011C219.752 234.347 218.777 236.302 216.591 238.117C203.71 248.809 181.078 246.176 169.025 242.141C163.874 240.417 161.999 234.021 160.653 227.691C159.158 220.667 161.593 213.992 165.747 208.878C178.822 192.78 203.593 198.75 208.022 199.607C210.33 200.053 212.279 202.176 213.748 205.039C215.216 207.903 216.021 211.864 215.216 215.756C214.411 219.647 211.971 223.347 207.992 226.253C189.239 239.948 168.557 233.698 163.432 231.2C158.317 228.707 160.17 219.589 160.333 213.228C160.483 207.368 163.124 201.908 169.495 195.861C189.958 176.439 218.922 176.385 231.545 176.666C236.634 176.779 238.504 184.055 243.101 186.232C251.291 190.112 264.441 181.878 278.47 186.432C287.988 189.523 294.136 208.563 297.515 217.327C300.894 226.091 299.211 227.675 294.921 230.525C284 237.781 276.052 243.782 275.402 248.246C272.54 267.9 304.513 286.563 309.573 287.186C315.651 287.935 320.425 282.2 324.008 277.049C328.934 269.964 330.084 259.197 329.701 249.402C329.075 233.414 308.085 221.939 298.906 216.043C297.034 214.84 295.799 212.784 298.392 210.091C316.661 191.116 351.495 193.572 374.622 193.56C383.34 193.556 385.888 195.251 387.113 202.134C390.507 221.198 385.438 240.773 380.173 252.378C372.059 270.265 338.491 292.466 325.945 308.026C324.631 309.654 328.728 311.664 331.217 312.804C336.304 315.135 342.351 313.956 347.243 311.292C358.129 305.361 351.615 280.697 344.51 267.076C335.863 250.496 323.618 248.212 320.2 245.502C309.015 236.632 357.623 240.387 361.672 243.285C365.848 246.273 364.659 260.253 362.984 277.27C360.724 300.222 336.023 316.167 307.423 337.96C302.023 342.076 301.668 344.718 302.838 346.28C305.698 350.098 315.203 349.71 323.379 348.88C339.896 347.203 327.885 307.751 323.219 298.932C318.562 290.131 304.998 292.067 300.469 292.313C294.631 292.631 314.311 295.36 318.262 299.324C320.16 301.229 320.615 303.968 319.697 307.314C317.508 315.298 309.662 321.125 301.476 324.989C276.863 336.606 248.186 330.521 245.875 326.699C244.701 324.759 244.877 322.147 245.075 319.764C245.274 317.382 245.834 315.135 249.255 312.216C258.104 304.663 271.664 300.727 282.268 300.805C286.851 300.839 288.811 306.728 289.949 310.07C291.086 313.412 291.086 315.529 290.048 317.593C285.001 327.626 266.205 329.642 236.486 329.911C230.55 329.965 228.845 327.39 228.136 324.984C227.427 322.578 227.825 319.497 229.063 317.151C230.302 314.806 232.367 313.29 234.532 312.428C236.696 311.566 238.896 311.404 240.208 312.56C243.207 315.203 241.912 323.147 240.64 331.031C238.466 344.504 214.592 353.58 186.098 362.183C167.116 367.913 150.622 366.351 142.736 364.508C139.277 363.699 138.619 358.977 138.53 355.695C138.364 349.59 143.974 343.807 151.123 338.456C166.259 327.127 190.103 324.68 202.394 325.486C204.912 325.651 205.167 330.035 204.938 332.894C204.708 335.753 203.469 338.346 201.633 338.998C199.796 339.65 197.399 338.282 195.859 336.194C194.318 334.107 193.707 331.341 193.928 328.634C194.149 325.927 195.221 323.363 197.712 321.619C215.657 309.06 244.449 318.886 248.415 320.995C250.367 322.033 251.282 324.391 250.329 326.427C247.908 331.594 233.709 335.278 219.062 338.045C213.911 339.018 213.026 335.211 213.237 332.162C213.449 329.113 214.69 325.941 217.529 323.595C223.818 318.399 233.611 317.641 241.355 317.359C247.547 317.134 250.753 323.241 253.138 325.569C265.586 337.722 298.167 318.603 304.1 319.761C306.864 320.301 308.657 322.433 309.941 324.308C311.225 326.183 311.826 328.168 311.118 329.582C310.411 330.997 308.378 331.78 306.25 331.383C304.123 330.985 301.963 329.383 301.385 327.021C300.806 324.659 301.876 321.586 306.048 319.902C316.775 315.571 328.519 318.777 334.4 321.697C337.091 323.033 337.553 326.547 332.127 328.276C326.701 330.004 314.956 330.473 308.588 329.374C302.219 328.276 301.584 325.596 301.676 323.093C301.856 318.255 307.146 312.15 315.392 305.332C334.509 289.523 372.157 293.887 401.327 297.131C405.857 297.635 405.717 301.142 404.516 303.554C398.534 315.561 356.679 315.852 310.226 311.351C302.543 310.606 299.667 308.289 297.675 305.545C295.682 302.801 294.793 298.829 294.858 294.881C295.247 271.114 326.408 248.052 341.427 242.863C345.313 241.521 349.673 241.846 352.345 240.103C355.017 238.359 356.041 235.211 355.667 232.307C352.706 209.3 302.957 206.752 296.084 205.933C293.12 205.58 291.139 207.08 289.808 209.271C279.432 226.339 288.909 255.279 291.044 263.917C291.601 266.168 290.068 268.663 288.502 269.832C286.936 271.001 284.711 270.837 283.605 269.534C282.5 268.231 282.58 265.793 284.419 263.996C301.18 247.609 339.458 259.981 345.466 262.971C348.002 264.233 348.133 267.09 347.123 270.039C341.59 286.202 311.163 287.897 280.306 287.466C274.776 287.388 274.121 283.749 273.852 281.349C272.744 271.478 294.156 256.486 327.637 234.677C333.958 230.559 336.072 228.8 337.238 226.798C339.451 222.999 308.261 218.869 262.2 218.85C246.527 218.843 246.761 224.739 248.057 229.562C254.243 252.6 269.7 265.028 271.511 268.993C272.403 270.945 272.127 273.193 270.561 275.475C262.504 287.219 242.989 285.611 230.083 284.51C225.192 284.092 224.1 281.205 223.483 278.687C220.886 268.096 225.675 255.6 235.382 239.423C237.732 235.508 240.514 233.159 241.905 230.72C243.296 228.281 243.608 226.089 241.687 224.642C230.154 215.953 204.717 225.68 185.568 233.373C182.33 234.674 181.783 237.987 181.828 240.572C182.012 251.174 190.057 256.91 192.113 261.985C193.112 264.449 191.899 267.3 190.565 269.095C188.059 272.467 182.484 273.143 177.313 273.182C161.863 273.298 166.479 227.091 174.042 205.429C179.469 189.885 197.112 185.233 216.253 183.071C254.126 178.793 279.663 184.375 281.254 189.769C285.555 204.354 282.877 224.453 275.494 239.007C267.124 255.508 255.37 259.666 253.789 264.333C252.995 266.678 253.725 269.359 254.986 271.769C260.368 282.051 284.356 282.892 301.397 281.641C304.119 281.441 305.717 279.189 307.18 276.721C316.53 260.95 309.604 234.658 305.371 223.946C304.454 221.625 305.592 219.099 307.662 217.865C312.515 214.974 321.036 217.709 329.892 220.613C334.543 222.137 339.071 224.981 341.28 229.948C351.149 252.144 318.917 281.585 310.047 298.141C303.314 310.707 331.261 309.328 333.307 309.483C333.565 309.503 330.413 308.637 327.9 308.981C316.568 310.532 306.432 325.323 285.687 336.863C267.363 347.056 246.859 348.942 234.682 347.885C229.791 347.461 228.313 343.174 227.948 340.352C227.584 337.529 228.58 335.256 231.154 333.007C237.188 327.732 248.652 326.016 259.123 326.382C263.1 326.522 264.105 328.936 264.155 330.912C264.601 348.592 215.417 350.665 201 351.25C195.747 351.463 194.773 348.533 194.759 346.197C194.745 343.861 195.744 341.448 197.396 339.584C207.369 328.327 241.11 336.805 274.106 345.595C296.905 351.669 308.707 365.55 314.117 366.818C320.636 368.345 328.842 361.822 335.754 356.027C338.663 353.588 338.784 350.55 338.266 348.008C336.163 337.704 311.47 322.154 302.103 305.214C296.857 295.725 342.901 276.8 358.899 260.244C368.336 250.48 341.082 239.604 337.189 234.838C333.785 230.67 338.619 223.724 341.698 218.015C351.655 199.553 280.279 193.455 267.446 194.493C247.792 196.083 262.779 244.835 262.878 275.061C262.912 285.451 257.689 291.118 251.994 295.75C243.435 302.712 233.487 304.161 228.236 304.603C225.756 304.811 223.621 304.484 221.475 302.192C210.568 290.544 212.048 276.802 210.217 266.226C207.403 249.967 243.039 237.814 269.937 229.325C281.23 225.762 292.541 226.319 302.42 226.811C317.529 227.562 339.338 257.341 355.41 281.374C361.711 290.797 362.212 310.41 365.038 330.554C366.092 338.067 372.203 338.668 376.246 339.158C380.289 339.647 383.569 339.647 385.752 338.568C387.935 337.488 388.921 335.328 389.287 332.488C389.653 329.649 389.371 326.197 388.223 323.416C383.241 311.343 365.196 309.979 358.504 310.127C346.681 310.39 355.976 335.014 351.385 344.361C346.9 353.496 334.119 348.911 329.779 348.253C327.608 347.925 325.81 346.282 325.94 344.047C326.735 330.442 358.571 327.673 384.477 327.678C388.542 327.679 388.643 331.556 387.159 334.028C385.674 336.499 382.383 338.777 378.961 340.051C375.539 341.324 372.086 341.523 369.144 340.664C366.202 339.806 363.875 337.883 362.31 334.562C353.047 314.909 362.005 287.718 369.342 273.4C381.342 249.98 406.824 240.304 408.332 235.684C409.069 233.428 408.211 230.986 406.425 228.793C397.653 218.023 384.904 217.724 379.478 217.491C360.261 216.665 350.291 254.399 345.978 253.491C341.002 252.443 333.704 241.214 322.615 229.473C305.168 211.002 272.079 224.563 265.495 226.257C252.976 229.477 250.218 256.502 250.677 267.133C250.918 272.717 265.59 273.23 279.78 273.395C289.688 273.511 297.311 269.037 304.949 261.578C322.422 244.514 322.657 223.69 322.939 211.99C323.342 195.237 279.643 194.8 269.916 196.435C260.259 198.058 253.203 213.846 240.064 224.739C235.77 228.3 225.59 217.829 214.91 210.4C191.294 193.973 207.424 283.899 215.405 295.916C225.674 311.376 186.593 324.299 186.306 328.584C186.164 330.708 187.365 332.713 189.223 334.318C197.672 341.614 236.343 339.084 270.578 335.493C280.094 334.494 286.96 328.113 293.318 323.122C304.481 314.359 305.856 284.077 304.269 258.399C303 237.86 298.382 220.649 299.295 212.291C300.015 205.705 310.353 200.608 321.335 195.713C325.773 193.735 328.339 193.838 331.211 195.182C346.629 202.398 350.192 218.473 351.083 223.542C354.445 242.678 325.22 262.6 323.801 272.355C323.418 274.986 325.384 277.804 326.972 279.896C328.559 281.988 330.547 283.262 332.263 283.076C333.979 282.889 335.363 281.203 336.38 278.951C338.549 274.145 335.232 234.979 329.752 179.177C327.815 159.466 326.985 157.289 328.032 155.238C333.151 145.213 360.416 148.591 376.92 154.932C394.805 161.805 389.322 196.589 385.665 223.955C379.652 268.943 370.92 291.479 372.029 308.874C372.975 323.715 348.595 322.328 340.177 328.484C319.1 343.899 277.668 328.092 273.105 328.223C270.849 328.288 268.892 329.897 267.443 331.536C261.15 338.648 262.641 351.774 257.395 359.534C254.674 363.558 238.094 363.577 218.099 361.913C211.022 361.325 210.878 356.924 211.607 354.154C214.45 343.351 232.956 339.511 264.069 336.111C276.425 334.761 282.509 354.057 294.496 360.004C297.226 361.359 300.44 359.994 302.857 358.707C307.097 355.263 311.502 349.289 315.63 342.445C317.232 339.353 317.832 337.034 317.488 331.274" stroke="black" stroke-width="2.43631" stroke-linecap="round"/>
</g>
</g>
<g filter="url(#filter0_d_144_3867)">
<rect x="10.5" y="8.5" width="1006" height="525" stroke="black" stroke-width="17" shape-rendering="crispEdges"/>
</g>
<defs>
<filter id="filter0_d_144_3867" x="0" y="0" width="1031" height="550" filterUnits="userSpaceOnUse" color-interpolation-filters="sRGB">
<feFlood flood-opacity="0" result="BackgroundImageFix"/>
<feColorMatrix in="SourceAlpha" type="matrix" values="0 0 0 0 0 0 0 0 0 0 0 0 0 0 0 0 0 0 127 0" result="hardAlpha"/>
<feOffset dx="2" dy="4"/>
<feGaussianBlur stdDeviation="2"/>
<feComposite in2="hardAlpha" operator="out"/>
<feColorMatrix type="matrix" values="0 0 0 0 0 0 0 0 0 0 0 0 0 0 0 0 0 0 0.25 0"/>
<feBlend mode="normal" in2="BackgroundImageFix" result="effect1_dropShadow_144_3867"/>
<feBlend mode="normal" in="SourceGraphic" in2="effect1_dropShadow_144_3867" result="shape"/>
</filter>
</defs>
</svg>
