<svg width="1054" height="554" viewBox="0 0 1054 554" fill="none" xmlns="http://www.w3.org/2000/svg">
<rect x="93.9277" y="73.6543" width="414.986" height="414.986" rx="24.3631" fill="#F0DFD1"/>
<rect x="577.942" y="69.5938" width="414.986" height="414.986" rx="24.3631" fill="#F0DFD1"/>
<path d="M674.264 326.992C662.523 360.791 688.895 398.331 703.513 422.423C701.482 389.127 722.164 354.594 804.2 375.718C902.204 400.954 890.703 327.813 888.267 316.444C885.83 305.074 872.599 285.539 877.696 263.242C880.944 249.03 895.963 232.797 892.327 208.84C885.424 163.362 849.678 159.293 822.879 173.504C810.618 180.006 789.583 193.401 743.292 173.504C680.291 146.424 665.187 207.612 679.15 240.908C692.262 272.175 687.663 288.417 674.264 326.992Z" fill="#F3CCCD" stroke="black" stroke-width="2.43631" stroke-linecap="square"/>
<path d="M766.682 198.649C774.848 189.903 788.714 189.903 796.88 198.649V198.649C801.735 203.85 808.924 206.186 815.909 204.832V204.832C827.656 202.556 838.874 210.706 840.339 222.582V222.582C841.21 229.643 845.654 235.759 852.1 238.769V238.769C862.942 243.832 867.226 257.02 861.431 267.489V267.489C857.986 273.713 857.986 281.272 861.431 287.497V287.497C867.226 297.966 862.942 311.153 852.1 316.217V316.217C845.654 319.227 841.21 325.343 840.339 332.404V332.404C838.874 344.28 827.656 352.43 815.909 350.153V350.153C808.924 348.8 801.735 351.136 796.88 356.336V356.336C788.714 365.083 774.848 365.083 766.682 356.336V356.336C761.827 351.136 754.638 348.8 747.653 350.153V350.153C735.906 352.43 724.688 344.28 723.223 332.404V332.404C722.351 325.343 717.908 319.227 711.462 316.217V316.217C700.62 311.153 696.335 297.966 702.131 287.497V287.497C705.576 281.272 705.576 273.713 702.131 267.489V267.489C696.335 257.02 700.62 243.832 711.462 238.769V238.769C717.908 235.759 722.351 229.643 723.223 222.582V222.582C724.688 210.706 735.906 202.556 747.653 204.832V204.832C754.638 206.186 761.827 203.85 766.682 198.649V198.649Z" fill="#69A1AE"/>
<path d="M768.876 210.105C775.855 202.629 787.706 202.629 794.686 210.105V210.105C798.835 214.55 804.98 216.546 810.95 215.39V215.39C820.99 213.444 830.578 220.41 831.831 230.56V230.56C832.575 236.595 836.373 241.822 841.882 244.395V244.395C851.149 248.723 854.811 259.994 849.858 268.942V268.942C846.913 274.262 846.913 280.723 849.858 286.043V286.043C854.811 294.991 851.149 306.262 841.882 310.59V310.59C836.373 313.163 832.575 318.39 831.831 324.425V324.425C830.578 334.575 820.99 341.541 810.95 339.596V339.596C804.98 338.439 798.835 340.436 794.686 344.88V344.88C787.706 352.356 775.855 352.356 768.876 344.88V344.88C764.726 340.436 758.581 338.439 752.612 339.596V339.596C742.571 341.541 732.983 334.575 731.731 324.425V324.425C730.986 318.39 727.189 313.163 721.679 310.59V310.59C712.413 306.262 708.75 294.991 713.704 286.043V286.043C716.648 280.723 716.648 274.262 713.704 268.942V268.942C708.75 259.994 712.413 248.723 721.679 244.395V244.395C727.189 241.822 730.986 236.595 731.731 230.56V230.56C732.983 220.41 742.571 213.444 752.612 215.39V215.39C758.581 216.546 764.726 214.55 768.876 210.105V210.105Z" fill="#8FC2C6"/>
<path d="M770.553 218.866C776.625 212.362 786.935 212.362 793.008 218.866V218.866C796.618 222.733 801.964 224.47 807.157 223.463V223.463C815.892 221.771 824.234 227.831 825.323 236.662V236.662C825.971 241.912 829.275 246.46 834.068 248.698V248.698C842.13 252.463 845.317 262.269 841.007 270.054V270.054C838.445 274.682 838.445 280.303 841.007 284.932V284.932C845.317 292.717 842.13 302.523 834.068 306.288V306.288C829.275 308.526 825.971 313.074 825.323 318.324V318.324C824.234 327.155 815.892 333.215 807.157 331.523V331.523C801.964 330.516 796.618 332.253 793.008 336.12V336.12C786.935 342.624 776.625 342.624 770.553 336.12V336.12C766.943 332.253 761.597 330.516 756.403 331.523V331.523C747.668 333.215 739.326 327.155 738.237 318.324V318.324C737.589 313.074 734.285 308.526 729.492 306.288V306.288C721.43 302.523 718.244 292.717 722.553 284.932V284.932C725.115 280.303 725.115 274.682 722.553 270.054V270.054C718.244 262.269 721.43 252.463 729.492 248.698V248.698C734.285 246.46 737.589 241.912 738.237 236.662V236.662C739.326 227.831 747.668 221.771 756.403 223.463V223.463C761.597 224.47 766.943 222.733 770.553 218.866V218.866Z" fill="#BFD8DC"/>
<path d="M870.049 176.624L856.668 176.624C853.395 176.624 851.364 173.059 853.027 170.235L873.552 135.377C876.104 131.043 882.732 132.857 882.732 137.888L882.732 159.713L896.114 159.713C899.386 159.713 901.418 163.278 899.755 166.102L879.229 200.96C876.677 205.294 870.049 203.48 870.049 198.449L870.049 176.624Z" fill="#4643FF"/>
<path d="M387.097 173.543H207.622C199.549 173.543 193.004 180.076 193.004 188.149L193.004 358.703C193.004 422.697 225.353 429.491 231.985 424.889C214.443 390.456 229.955 374.539 244.979 374.539H387.097C395.17 374.539 401.715 367.994 401.715 359.921V188.161C401.715 180.088 395.17 173.543 387.097 173.543Z" fill="#FDFAE7" stroke="black" stroke-width="2.43631" stroke-linecap="square"/>
<path d="M260.207 200.343C239.687 200.343 223.053 216.977 223.053 237.497C223.053 258.016 239.687 274.65 260.207 274.65C239.687 274.65 223.053 291.285 223.053 311.804C223.053 332.324 239.687 348.958 260.207 348.958H334.514C355.034 348.958 371.668 332.324 371.668 311.804C371.668 291.285 355.034 274.65 334.514 274.65C355.034 274.65 371.668 258.016 371.668 237.497C371.668 216.977 355.034 200.343 334.514 200.343H260.207Z" fill="#E7A46D"/>
<path d="M265.484 210.9C247.88 210.9 233.609 225.171 233.609 242.776C233.609 260.38 247.88 274.651 265.484 274.651C247.88 274.651 233.609 288.922 233.609 306.526C233.609 324.13 247.88 338.401 265.484 338.401H329.235C346.839 338.401 361.11 324.13 361.11 306.526C361.11 288.922 346.839 274.651 329.235 274.651C346.839 274.651 361.11 260.38 361.11 242.776C361.11 225.171 346.839 210.9 329.235 210.9H265.484Z" fill="#D58705"/>
<path d="M270.358 220.645C255.445 220.645 243.355 232.734 243.355 247.647C243.355 262.56 255.445 274.649 270.358 274.649C255.445 274.649 243.355 286.739 243.355 301.652C243.355 316.565 255.445 328.654 270.358 328.654H324.363C339.276 328.654 351.365 316.565 351.365 301.652C351.365 286.739 339.276 274.649 324.363 274.649C339.276 274.649 351.365 262.56 351.365 247.647C351.365 232.734 339.276 220.645 324.363 220.645H270.358Z" fill="#F8D875"/>
<path d="M389.552 138.701C397.011 134.678 403.458 137.74 407.093 142.554C410.694 147.324 409.74 155.528 402.762 161.681C404.734 160.081 412.532 156.723 418.573 160.733C424.834 164.89 425.228 170.754 423.49 175.656C420.762 183.347 414.929 188.871 409.605 193.315C414.319 192.102 421.791 191.126 427.047 195.543C432.303 199.959 432.569 208.666 422.372 214.982C412.175 221.298 389.092 229.362 381.513 212.763C378.473 206.107 382.329 198.848 384.973 195.09C386.118 193.463 389.682 188.781 395.613 183.149C387.853 189.217 373.483 196.205 365.445 188.839C349.369 174.105 376.206 145.897 389.552 138.701Z" fill="#4643FF"/>
<mask id="mask0_144_3870" style="mask-type:alpha" maskUnits="userSpaceOnUse" x="720" y="213" width="123" height="128">
<path d="M770.553 218.866C776.625 212.362 786.935 212.362 793.008 218.866V218.866C796.618 222.733 801.964 224.47 807.157 223.463V223.463C815.892 221.771 824.234 227.831 825.323 236.662V236.662C825.971 241.912 829.275 246.46 834.068 248.698V248.698C842.13 252.463 845.317 262.269 841.007 270.054V270.054C838.445 274.682 838.445 280.303 841.007 284.932V284.932C845.317 292.717 842.13 302.523 834.068 306.288V306.288C829.275 308.526 825.971 313.074 825.323 318.324V318.324C824.234 327.155 815.892 333.215 807.157 331.523V331.523C801.964 330.516 796.618 332.253 793.008 336.12V336.12C786.935 342.624 776.625 342.624 770.553 336.12V336.12C766.943 332.253 761.597 330.516 756.403 331.523V331.523C747.668 333.215 739.326 327.155 738.237 318.324V318.324C737.589 313.074 734.285 308.526 729.492 306.288V306.288C721.43 302.523 718.244 292.717 722.553 284.932V284.932C725.115 280.303 725.115 274.682 722.553 270.054V270.054C718.244 262.269 721.43 252.463 729.492 248.698V248.698C734.285 246.46 737.589 241.912 738.237 236.662V236.662C739.326 227.831 747.668 221.771 756.403 223.463V223.463C761.597 224.47 766.943 222.733 770.553 218.866V218.866Z" fill="#BFD8DC"/>
</mask>
<g mask="url(#mask0_144_3870)">
<rect x="720.061" y="214.961" width="6.32102" height="6.32102" fill="black"/>
<rect x="720.061" y="243.405" width="6.32102" height="6.32102" fill="black"/>
<rect x="720.061" y="271.85" width="6.32102" height="6.32102" fill="black"/>
<rect x="720.061" y="300.926" width="6.32102" height="6.32102" fill="black"/>
<rect x="720.061" y="330.003" width="6.32102" height="6.32102" fill="black"/>
<rect x="749.137" y="214.961" width="6.32102" height="6.32102" fill="black"/>
<rect x="734.599" y="228.867" width="6.32102" height="6.32102" fill="black"/>
<rect x="734.599" y="257.943" width="6.32102" height="6.32102" fill="black"/>
<rect x="734.599" y="286.388" width="6.32102" height="6.32102" fill="black"/>
<rect x="734.599" y="315.465" width="6.32102" height="6.32102" fill="black"/>
<rect x="763.676" y="228.867" width="6.32102" height="6.32102" fill="black"/>
<rect x="763.676" y="257.943" width="6.32102" height="6.32102" fill="black"/>
<rect x="763.676" y="286.388" width="6.32102" height="6.32102" fill="black"/>
<rect x="763.676" y="315.465" width="6.32102" height="6.32102" fill="black"/>
<rect x="792.753" y="228.867" width="6.32102" height="6.32102" fill="black"/>
<rect x="792.753" y="257.943" width="6.32102" height="6.32102" fill="black"/>
<rect x="792.753" y="286.388" width="6.32102" height="6.32102" fill="black"/>
<rect x="792.753" y="315.465" width="6.32102" height="6.32102" fill="black"/>
<rect x="821.829" y="228.867" width="6.32102" height="6.32102" fill="black"/>
<rect x="821.829" y="257.943" width="6.32102" height="6.32102" fill="black"/>
<rect x="821.829" y="286.388" width="6.32102" height="6.32102" fill="black"/>
<rect x="821.829" y="315.465" width="6.32102" height="6.32102" fill="black"/>
<rect x="749.137" y="243.405" width="6.32102" height="6.32102" fill="black"/>
<rect x="749.137" y="271.85" width="6.32102" height="6.32102" fill="black"/>
<rect x="749.137" y="300.926" width="6.32102" height="6.32102" fill="black"/>
<rect x="749.137" y="330.003" width="6.32102" height="6.32102" fill="black"/>
<rect x="778.214" y="214.961" width="6.32102" height="6.32102" fill="black"/>
<rect x="778.214" y="243.405" width="6.32102" height="6.32102" fill="black"/>
<rect x="778.214" y="271.85" width="6.32102" height="6.32102" fill="black"/>
<rect x="778.214" y="300.926" width="6.32102" height="6.32102" fill="black"/>
<rect x="778.214" y="330.003" width="6.32102" height="6.32102" fill="black"/>
<rect x="807.29" y="214.961" width="6.32102" height="6.32102" fill="black"/>
<rect x="807.29" y="243.405" width="6.32102" height="6.32102" fill="black"/>
<rect x="807.29" y="271.85" width="6.32102" height="6.32102" fill="black"/>
<rect x="807.29" y="300.926" width="6.32102" height="6.32102" fill="black"/>
<rect x="807.29" y="330.003" width="6.32102" height="6.32102" fill="black"/>
<rect x="836.367" y="214.961" width="6.32102" height="6.32102" fill="black"/>
<rect x="836.367" y="243.405" width="6.32102" height="6.32102" fill="black"/>
<rect x="836.367" y="271.85" width="6.32102" height="6.32102" fill="black"/>
<rect x="836.367" y="300.926" width="6.32102" height="6.32102" fill="black"/>
<rect x="836.367" y="330.003" width="6.32102" height="6.32102" fill="black"/>
</g>
<mask id="mask1_144_3870" style="mask-type:alpha" maskUnits="userSpaceOnUse" x="243" y="220" width="109" height="109">
<path d="M270.358 220.645C255.445 220.645 243.355 232.734 243.355 247.647C243.355 262.56 255.445 274.649 270.358 274.649C255.445 274.649 243.355 286.739 243.355 301.652C243.355 316.565 255.445 328.654 270.358 328.654H324.363C339.276 328.654 351.365 316.565 351.365 301.652C351.365 286.739 339.276 274.649 324.363 274.649C339.276 274.649 351.365 262.56 351.365 247.647C351.365 232.734 339.276 220.645 324.363 220.645H270.358Z" fill="#F8D875"/>
</mask>
<g mask="url(#mask1_144_3870)">
<mask id="mask2_144_3870" style="mask-type:alpha" maskUnits="userSpaceOnUse" x="213" y="190" width="170" height="170">
<rect x="213.308" y="190.597" width="168.918" height="168.918" fill="#D9D9D9"/>
</mask>
<g mask="url(#mask2_144_3870)">
<path d="M278.016 212.465C274.423 227.33 242.663 266.802 209.612 297.16C205.23 301.185 199.966 299.953 196.858 299.317C191.625 298.245 188.33 290.434 185.104 279.508C181.728 268.077 182.434 258.88 185.658 253.546C195.762 236.83 225.391 239.518 235.367 240.28C246.958 241.166 245.028 255.953 249.277 257.922C265.39 265.389 288.074 232.569 295.331 218.064C298.141 212.448 295.765 205.94 292.984 200.568C290.644 196.047 274.771 195.02 252.679 195.053C236.294 195.077 226.129 203.481 219.471 210.005C213.864 215.499 211.709 221.431 210.263 225.946C209.546 228.187 209.334 230.462 210.777 233.606C220.306 254.378 241.302 265.854 243.947 270.811C245.234 273.223 244.631 276.182 242.822 278.431C238.719 283.53 221.985 284.341 203.078 284.035C196.161 283.923 194.791 281.803 193.97 278.792C193.149 275.781 192.947 271.407 194.223 267.89C195.499 264.372 198.26 261.843 201.58 260.031C220.993 249.44 251.113 257.884 261.115 261.867C276.617 268.04 275.078 291.566 275.56 300.899C276.188 313.039 296.334 283.315 303.848 267.983C305.576 264.459 306.441 260.971 306.469 258.218C306.497 255.466 305.385 253.432 303.79 252.063C300.634 249.354 292.512 248.447 283.091 247.701C279.209 247.394 277.122 249.253 275.669 251.271C268.226 261.602 276.53 283.633 280.231 296.463C281.02 299.199 278.616 302.445 275.27 304.929C256.153 319.119 223.449 315.616 208.853 313.26C204.049 312.485 205.952 304.068 206.232 299.607C206.519 295.034 209.521 290.351 215.155 285.249C231.184 270.732 245.596 273.248 249.92 273.479C252.074 273.594 253.862 275.495 255.299 277.967C256.735 280.439 257.694 283.881 257.485 287.368C257.276 290.855 255.87 294.284 254.067 296.962C245.383 309.86 224.637 310.597 219.709 309.575C215.916 308.788 216.806 299.592 218.057 290.932C219.142 283.422 229.309 279.21 238.144 275.419C244.576 272.66 250.662 272.687 256.51 274.866C264.492 277.84 265.348 289.69 266.385 297.084C267.341 303.903 265.857 310.133 262.536 315.273C253.617 329.076 224.892 325.928 205.587 326.129C202.098 326.166 199.706 324.445 198.45 321.201C195.322 313.121 197.52 304.37 198.673 299.116C199.234 296.554 200.816 294.499 204.01 292.939C219.776 285.235 231.406 290.332 236.294 293.2C239.009 294.792 240.962 298.416 242.225 301.913C243.489 305.41 243.688 309.118 240.47 312.919C224.528 331.75 202.037 330.189 191.239 329.888C178.073 329.523 188.66 300.646 191.314 296.381C197.629 286.23 214.371 290.531 218.644 292.133C223.588 293.988 225.362 300.481 227.386 305.154C229.464 309.95 229.461 314.893 227.736 319.086C222.142 332.686 199.677 330.119 190.898 328.519C187.337 327.87 186.857 323.72 186.727 320.488C186.598 317.256 187.158 314.089 189.414 310.814C199.777 295.774 227.924 296.866 244.04 299.351C251.121 300.442 253.294 314.043 254.824 326.147C255.803 333.89 253.89 340.379 250.645 346.692C243.605 360.388 212.119 358.942 199.392 356.965C196.847 356.569 197.253 351.269 198.183 347.667C200.108 340.212 207.326 334.809 216.564 329.806C248.647 312.429 286.811 322.644 298.14 330.131C301.246 332.182 302.953 336.641 305.259 338.728C307.565 340.815 309.75 341.162 312.186 340.191C317.784 337.961 321.614 331.181 324.416 324.953C326.623 320.047 326.69 314.652 325.869 309.306C325.1 304.299 318.946 301.64 312.854 299.266C305.901 296.557 299.361 296.179 293.997 297.971C279.682 302.751 274.792 315.805 264.198 318.914C259.25 320.366 257.937 305.306 258.29 291.097C258.543 280.928 267.629 272.192 278.192 263.525C297.719 247.504 330.984 252.341 363.72 258.177C370.207 259.333 372.75 261.747 374.816 261.239C376.883 260.732 378.221 257.966 377.574 253.873C376.011 244 369.579 237.559 364.249 234.337C343.159 221.586 315.651 219.349 305.414 219.301C286.673 219.213 287.802 259.385 290.471 269.016C294.878 284.91 286.502 303.166 284.22 307.219C281.959 311.232 276.05 312.305 267.798 313.058C254.244 314.297 243.614 310.632 240.171 306.277C232.591 296.688 249.877 272.819 267.307 254.624C283.329 237.899 306.766 236.839 323.994 235.567C327.481 235.309 329.79 237.776 332.208 237.854C334.626 237.933 337.037 236.443 338.278 234.092C339.52 231.741 339.52 228.574 338.781 225.902C338.041 223.229 336.563 221.147 333.857 219.488C327.737 215.735 310.208 215.083 289.476 215.953C279.045 216.391 276.714 224.792 273.645 227.937C270.186 231.483 258.323 226.681 246.216 219.449C241.714 216.761 242.361 213.484 245.221 211.133C263.66 195.981 292.371 201.26 303.26 202.669C307.284 203.191 307.377 206.899 307.068 209.732C305.764 221.687 295.272 233.018 280.258 243.502C265.916 253.515 240.133 253.139 227.023 249.152C224.939 248.518 225.499 245.018 226.291 242.263C228.079 236.046 233.207 232.325 237.982 230.738C240.488 229.905 243.278 229.385 245.613 229.605C247.948 229.824 249.774 230.893 250.714 232.763C251.655 234.632 251.655 237.268 251.168 239.604C250.68 241.94 249.705 243.896 247.518 245.711C234.638 256.402 212.006 253.77 199.953 249.735C194.802 248.011 192.927 241.614 191.58 235.285C190.086 228.261 192.52 221.586 196.674 216.472C209.75 200.374 234.521 206.344 238.95 207.2C241.258 207.647 243.207 209.77 244.675 212.633C246.144 215.496 246.949 219.458 246.144 223.349C245.338 227.24 242.898 230.941 238.92 233.846C220.167 247.542 199.485 241.291 194.36 238.794C189.245 236.301 191.098 227.183 191.261 220.822C191.411 214.962 194.052 209.502 200.423 203.455C220.885 184.032 249.849 183.979 262.472 184.259C267.562 184.372 269.432 191.648 274.029 193.826C282.219 197.706 295.369 189.471 309.398 194.026C318.916 197.116 325.064 216.157 328.443 224.921C331.822 233.685 330.139 235.268 325.848 238.119C314.928 245.375 306.979 251.376 306.33 255.84C303.468 275.494 335.441 294.157 340.501 294.78C346.579 295.528 351.353 289.794 354.935 284.642C359.862 277.557 361.012 266.791 360.629 256.996C360.003 241.008 339.013 229.533 329.834 223.637C327.961 222.434 326.727 220.378 329.319 217.685C347.589 198.71 382.423 201.166 405.55 201.154C414.267 201.15 416.816 202.844 418.041 209.727C421.435 228.792 416.365 248.367 411.101 259.972C402.987 277.858 369.419 300.06 356.872 315.619C355.559 317.248 359.656 319.258 362.145 320.398C367.231 322.728 373.279 321.55 378.17 318.885C389.057 312.955 382.542 288.29 375.438 274.669C366.791 258.09 354.546 255.806 351.128 253.095C339.943 244.226 388.551 247.981 392.6 250.878C396.776 253.866 395.587 267.847 393.911 284.864C391.652 307.816 366.95 323.761 338.351 345.554C332.95 349.67 332.596 352.312 333.766 353.874C336.626 357.692 346.131 357.304 354.307 356.474C370.823 354.797 358.813 315.345 354.146 306.526C349.489 297.724 335.926 299.661 331.397 299.907C325.559 300.225 345.239 302.953 349.189 306.918C351.087 308.823 351.543 311.562 350.625 314.908C348.435 322.892 340.589 328.719 332.404 332.582C307.791 344.2 279.114 338.115 276.802 334.293C275.629 332.353 275.805 329.741 276.003 327.358C276.201 324.975 276.762 322.729 280.182 319.809C289.031 312.256 302.592 308.321 313.196 308.399C317.779 308.433 319.739 314.321 320.876 317.664C322.014 321.006 322.014 323.123 320.976 325.187C315.929 335.22 297.133 337.235 267.414 337.505C261.478 337.559 259.773 334.984 259.064 332.578C258.354 330.172 258.753 327.091 259.991 324.745C261.229 322.4 263.295 320.884 265.459 320.022C267.624 319.16 269.824 318.998 271.135 320.154C274.134 322.797 272.84 330.741 271.568 338.625C269.394 352.098 245.52 361.174 217.026 369.776C198.043 375.507 181.549 373.945 173.664 372.102C170.204 371.293 169.547 366.571 169.458 363.289C169.292 357.184 174.902 351.401 182.051 346.05C197.187 334.721 221.031 332.274 233.321 333.08C235.839 333.245 236.095 337.628 235.866 340.488C235.636 343.347 234.397 345.94 232.56 346.592C230.724 347.244 228.327 345.876 226.786 343.788C225.246 341.7 224.634 338.934 224.855 336.228C225.076 333.521 226.148 330.957 228.64 329.213C246.585 316.653 275.377 326.48 279.343 328.589C281.294 329.627 282.21 331.985 281.256 334.021C278.836 339.187 264.637 342.872 249.99 345.639C244.839 346.612 243.953 342.804 244.165 339.756C244.376 336.707 245.618 333.534 248.457 331.189C254.746 325.992 264.539 325.235 272.283 324.953C278.475 324.728 281.681 330.834 284.066 333.163C296.513 345.316 329.095 326.197 335.028 327.355C337.792 327.895 339.585 330.027 340.869 331.902C342.153 333.777 342.753 335.762 342.046 337.176C341.339 338.59 339.305 339.374 337.178 338.977C335.05 338.579 332.89 336.977 332.312 334.615C331.734 332.253 332.803 329.18 336.975 327.496C347.703 323.165 359.446 326.371 365.328 329.29C368.019 330.626 368.481 334.141 363.055 335.869C357.629 337.598 345.884 338.067 339.515 336.968C333.147 335.87 332.511 333.19 332.604 330.686C332.783 325.849 338.074 319.744 346.32 312.925C365.437 297.117 403.085 301.481 432.255 304.725C436.785 305.228 436.645 308.735 435.443 311.147C429.462 323.154 387.607 323.446 341.154 318.944C333.471 318.2 330.595 315.882 328.602 313.139C326.61 310.395 325.721 306.422 325.785 302.474C326.175 278.708 357.335 255.646 372.355 250.457C376.24 249.115 380.601 249.44 383.273 247.696C385.945 245.953 386.968 242.804 386.595 239.901C383.634 216.894 333.884 214.346 327.012 213.527C324.048 213.174 322.067 214.674 320.735 216.865C310.36 233.933 319.836 262.873 321.972 271.511C322.529 273.762 320.995 276.257 319.429 277.426C317.863 278.595 315.639 278.431 314.533 277.128C313.427 275.824 313.508 273.387 315.346 271.59C332.107 255.203 370.386 267.574 376.394 270.565C378.93 271.826 379.06 274.683 378.051 277.633C372.518 293.796 342.09 295.491 311.234 295.059C305.704 294.982 305.049 291.343 304.78 288.943C303.672 279.072 325.084 264.08 358.565 242.27C364.886 238.153 367 236.394 368.166 234.392C370.379 230.592 339.188 226.463 293.128 226.443C277.454 226.437 277.689 232.333 278.984 237.156C285.171 260.194 300.627 272.622 302.439 276.587C303.331 278.539 303.055 280.786 301.489 283.069C293.432 294.813 273.917 293.205 261.01 292.104C256.119 291.686 255.028 288.799 254.411 286.281C251.814 275.69 256.603 263.194 266.31 247.017C268.659 243.102 271.441 240.753 272.832 238.314C274.223 235.875 274.536 233.683 272.615 232.235C261.082 223.547 235.645 233.274 216.496 240.966C213.258 242.267 212.711 245.58 212.756 248.165C212.94 258.768 220.985 264.504 223.041 269.579C224.039 272.043 222.827 274.894 221.493 276.689C218.987 280.061 213.412 280.737 208.241 280.775C192.79 280.891 197.407 234.685 204.97 213.023C210.397 197.479 228.04 192.826 247.18 190.665C285.053 186.387 310.591 191.969 312.181 197.363C316.483 211.948 313.805 232.047 306.422 246.601C298.052 263.102 286.298 267.259 284.717 271.927C283.923 274.272 284.652 276.953 285.914 279.363C291.296 289.645 315.283 290.486 332.325 289.235C335.047 289.035 336.644 286.783 338.108 284.314C347.457 268.543 340.532 242.252 336.299 231.539C335.382 229.219 336.519 226.692 338.59 225.459C343.443 222.568 351.963 225.303 360.819 228.206C365.471 229.731 369.999 232.575 372.207 237.542C382.077 259.738 349.845 289.179 340.975 305.734C334.242 318.3 362.189 316.921 364.234 317.077C364.492 317.097 361.341 316.231 358.828 316.575C347.496 318.125 337.36 332.917 316.615 344.457C298.291 354.65 277.787 356.536 265.609 355.479C260.719 355.055 259.241 350.768 258.876 347.945C258.511 345.123 259.508 342.85 262.082 340.6C268.116 335.326 279.58 333.61 290.051 333.976C294.028 334.115 295.033 336.529 295.083 338.506C295.529 356.186 246.345 358.259 231.928 358.844C226.675 359.057 225.7 356.127 225.687 353.791C225.673 351.455 226.672 349.042 228.323 347.178C238.297 335.921 272.038 344.398 305.034 353.189C327.832 359.262 339.635 373.144 345.045 374.412C351.563 375.939 359.77 369.415 366.682 363.621C369.591 361.182 369.712 358.144 369.193 355.602C367.09 345.298 342.398 329.748 333.031 312.807C327.784 303.319 373.828 284.393 389.827 267.838C399.263 258.074 372.01 247.198 368.117 242.432C364.713 238.264 369.547 231.318 372.626 225.609C382.583 207.146 311.207 201.049 298.374 202.087C278.72 203.677 293.706 252.428 293.806 282.654C293.84 293.045 288.617 298.711 282.922 303.344C274.363 310.305 264.415 311.755 259.164 312.197C256.684 312.405 254.549 312.078 252.403 309.786C241.496 298.138 242.976 284.396 241.145 273.819C238.331 257.56 273.967 245.407 300.865 236.919C312.158 233.355 323.469 233.913 333.348 234.405C348.457 235.156 370.266 264.935 386.338 288.968C392.639 298.39 393.139 318.004 395.965 338.148C397.02 345.661 403.13 346.262 407.174 346.751C411.217 347.241 414.497 347.241 416.68 346.161C418.863 345.081 419.848 342.921 420.215 340.082C420.581 337.243 420.298 333.79 419.151 331.01C414.168 318.937 396.123 317.573 389.431 317.721C377.608 317.984 386.903 342.608 382.313 351.955C377.828 361.089 365.047 356.504 360.706 355.847C358.536 355.519 356.737 353.876 356.868 351.641C357.662 338.035 389.499 335.267 415.405 335.272C419.47 335.273 419.571 339.15 418.086 341.621C416.602 344.092 413.311 346.371 409.889 347.644C406.467 348.918 403.014 349.117 400.072 348.258C397.13 347.399 394.803 345.476 393.238 342.156C383.974 322.503 392.933 295.311 400.269 280.993C412.27 257.574 437.752 247.897 439.26 243.278C439.996 241.021 439.139 238.58 437.353 236.387C428.581 225.617 415.832 225.317 410.406 225.084C391.189 224.259 381.219 261.993 376.905 261.085C371.93 260.037 364.632 248.807 353.542 237.067C336.096 218.596 303.007 232.157 296.423 233.85C283.904 237.071 281.146 264.096 281.605 274.727C281.845 280.31 296.518 280.824 310.707 280.989C320.616 281.104 328.239 276.631 335.877 269.172C353.35 252.108 353.585 231.284 353.866 219.583C354.269 202.831 310.571 202.394 300.844 204.029C291.187 205.652 284.131 221.439 270.992 232.333C266.697 235.893 256.518 225.423 245.837 217.993C222.222 201.567 238.351 291.493 246.333 303.509C256.601 318.969 217.521 331.892 217.234 336.178C217.091 338.302 218.293 340.307 220.151 341.912C228.6 349.208 267.271 346.678 301.506 343.086C311.022 342.088 317.888 335.707 324.246 330.716C335.409 321.953 336.784 291.67 335.197 265.993C333.927 245.454 329.31 228.242 330.223 219.885C330.943 213.298 341.28 208.202 352.263 203.307C356.701 201.329 359.267 201.431 362.139 202.776C377.556 209.992 381.12 226.066 382.01 231.135C385.373 250.272 356.148 270.194 354.728 279.948C354.345 282.58 356.312 285.397 357.899 287.49C359.487 289.582 361.475 290.856 363.191 290.669C364.907 290.483 366.291 288.797 367.307 286.545C369.476 281.739 366.16 242.572 360.679 186.771C358.743 167.059 357.913 164.883 358.96 162.832C364.078 152.806 391.344 156.184 407.848 162.526C425.733 169.399 420.25 204.182 416.593 231.549C410.58 276.537 401.848 299.073 402.957 316.468C403.903 331.308 379.523 329.921 371.105 336.078C350.028 351.493 308.596 335.685 304.033 335.816C301.777 335.881 299.82 337.491 298.371 339.129C292.078 346.242 293.569 359.368 288.322 367.127C285.601 371.152 269.021 371.17 249.026 369.507C241.95 368.919 241.805 364.518 242.534 361.747C245.377 350.945 263.883 347.104 294.997 343.705C307.352 342.355 313.437 361.65 325.424 367.598C328.153 368.953 331.368 367.587 333.785 366.301C338.025 362.857 342.43 356.882 346.558 350.038C348.16 346.946 348.76 344.627 348.416 338.868" stroke="black" stroke-width="2.43631" stroke-linecap="round"/>
</g>
</g>
<path d="M4.42773 76.5938L59.4277 548.594H522.428L539.928 4.59375L4.42773 76.5938Z" stroke="black" stroke-width="8"/>
<path d="M521.928 549.594L1048.93 521.094L1035.43 54.0938L541.428 5.09375" stroke="black" stroke-width="8"/>
</svg>
