<svg width="899" height="501" viewBox="0 0 899 501" fill="none" xmlns="http://www.w3.org/2000/svg">
<circle cx="450.5" cy="80.5" r="73.5" stroke="black" stroke-width="14"/>
<rect x="0.5" y="85.5605" width="413.986" height="413.986" rx="23.8631" fill="#F0DFD1" stroke="black"/>
<rect x="484.515" y="81.5" width="413.986" height="413.986" rx="23.8631" fill="#F0DFD1" stroke="black"/>
<path d="M580.336 338.398C568.595 372.197 594.967 409.737 609.585 433.83C607.555 400.533 628.236 366.001 710.273 387.124C808.277 412.36 796.775 339.219 794.339 327.85C791.903 316.48 778.671 296.946 783.768 274.648C787.017 260.436 802.036 244.203 798.399 220.246C791.497 174.768 755.75 170.699 728.951 184.911C716.691 191.412 695.655 204.807 649.365 184.911C586.363 157.831 571.259 219.019 585.222 252.315C598.334 283.581 593.735 299.823 580.336 338.398Z" fill="#F3CCCD" stroke="black" stroke-width="2.43631" stroke-linecap="square"/>
<path d="M672.754 210.056C680.92 201.309 694.786 201.309 702.952 210.056V210.056C707.807 215.256 714.996 217.592 721.981 216.238V216.238C733.728 213.962 744.946 222.112 746.411 233.988V233.988C747.283 241.049 751.726 247.165 758.172 250.175V250.175C769.014 255.238 773.299 268.426 767.504 278.895V278.895C764.058 285.119 764.058 292.679 767.504 298.903V298.903C773.299 309.372 769.014 322.56 758.172 327.623V327.623C751.726 330.633 747.283 336.749 746.411 343.81V343.81C744.946 355.686 733.728 363.836 721.981 361.56V361.56C714.996 360.206 707.807 362.542 702.952 367.742V367.742C694.786 376.489 680.92 376.489 672.754 367.742V367.742C667.899 362.542 660.71 360.206 653.726 361.56V361.56C641.978 363.836 630.76 355.686 629.295 343.81V343.81C628.424 336.749 623.98 330.633 617.534 327.623V327.623C606.692 322.56 602.408 309.372 608.203 298.903V298.903C611.648 292.679 611.648 285.119 608.203 278.895V278.895C602.408 268.426 606.692 255.238 617.534 250.175V250.175C623.98 247.165 628.424 241.049 629.295 233.988V233.988C630.76 222.112 641.978 213.962 653.726 216.238V216.238C660.71 217.592 667.899 215.256 672.754 210.056V210.056Z" fill="#69A1AE"/>
<path d="M674.948 221.511C681.927 214.036 693.779 214.036 700.758 221.511V221.511C704.908 225.956 711.052 227.953 717.022 226.796V226.796C727.063 224.85 736.651 231.816 737.903 241.967V241.967C738.647 248.002 742.445 253.229 747.955 255.802V255.802C757.221 260.129 760.883 271.401 755.93 280.349V280.349C752.985 285.668 752.985 292.129 755.93 297.449V297.449C760.883 306.397 757.221 317.669 747.955 321.996V321.996C742.445 324.569 738.647 329.796 737.903 335.831V335.831C736.651 345.982 727.063 352.948 717.022 351.002V351.002C711.052 349.845 704.908 351.842 700.758 356.286V356.286C693.779 363.762 681.927 363.762 674.948 356.286V356.286C670.798 351.842 664.654 349.845 658.684 351.002V351.002C648.643 352.948 639.056 345.982 637.803 335.831V335.831C637.059 329.796 633.261 324.569 627.752 321.996V321.996C618.485 317.669 614.823 306.397 619.776 297.449V297.449C622.721 292.129 622.721 285.668 619.776 280.349V280.349C614.823 271.401 618.485 260.129 627.752 255.802V255.802C633.261 253.229 637.059 248.002 637.803 241.967V241.967C639.056 231.816 648.643 224.85 658.684 226.796V226.796C664.654 227.953 670.798 225.956 674.948 221.511V221.511Z" fill="#8FC2C6"/>
<path d="M676.625 230.272C682.697 223.768 693.008 223.768 699.08 230.272V230.272C702.69 234.139 708.036 235.876 713.229 234.87V234.87C721.965 233.177 730.306 239.237 731.396 248.068V248.068C732.043 253.318 735.347 257.866 740.141 260.104V260.104C748.203 263.87 751.389 273.676 747.08 281.46V281.46C744.518 286.089 744.518 291.71 747.08 296.338V296.338C751.389 304.123 748.203 313.929 740.141 317.694V317.694C735.347 319.932 732.043 324.48 731.396 329.73V329.73C730.306 338.561 721.965 344.622 713.229 342.929V342.929C708.036 341.923 702.69 343.659 699.08 347.526V347.526C693.008 354.03 682.697 354.03 676.625 347.526V347.526C673.015 343.659 667.669 341.923 662.475 342.929V342.929C653.74 344.622 645.398 338.561 644.309 329.73V329.73C643.661 324.48 640.357 319.932 635.564 317.694V317.694C627.502 313.929 624.316 304.123 628.625 296.338V296.338C631.187 291.71 631.187 286.089 628.625 281.46V281.46C624.316 273.676 627.502 263.87 635.564 260.104V260.104C640.357 257.866 643.661 253.318 644.309 248.068V248.068C645.398 239.237 653.74 233.177 662.475 234.87V234.87C667.669 235.876 673.015 234.139 676.625 230.272V230.272Z" fill="#BFD8DC"/>
<path d="M776.121 188.03L762.74 188.03C759.468 188.03 757.436 184.465 759.099 181.641L779.625 146.783C782.176 142.449 788.805 144.263 788.805 149.295L788.805 171.119L802.186 171.119C805.458 171.119 807.49 174.684 805.827 177.508L785.301 212.367C782.749 216.7 776.121 214.887 776.121 209.855L776.121 188.03Z" fill="#4643FF"/>
<path d="M293.169 184.949H113.694C105.621 184.949 99.0764 191.482 99.0764 199.556L99.0762 370.109C99.0762 434.103 131.425 440.898 138.057 436.296C120.516 401.862 136.027 385.945 151.051 385.945H293.169C301.242 385.945 307.787 379.401 307.787 371.327V199.567C307.787 191.494 301.242 184.949 293.169 184.949Z" fill="#FDFAE7" stroke="black" stroke-width="2.43631" stroke-linecap="square"/>
<path d="M166.279 211.749C145.759 211.749 129.125 228.383 129.125 248.903C129.125 269.422 145.759 286.057 166.279 286.057C145.759 286.057 129.125 302.691 129.125 323.21C129.125 343.73 145.759 360.364 166.279 360.364H240.586C261.106 360.364 277.74 343.73 277.74 323.21C277.74 302.691 261.106 286.057 240.586 286.057C261.106 286.057 277.74 269.422 277.74 248.903C277.74 228.383 261.106 211.749 240.586 211.749H166.279Z" fill="#E7A46D"/>
<path d="M171.557 222.307C153.953 222.307 139.682 236.578 139.682 254.182C139.682 271.786 153.953 286.057 171.557 286.057C153.953 286.057 139.682 300.328 139.682 317.932C139.682 335.536 153.953 349.807 171.557 349.807H235.307C252.911 349.807 267.182 335.536 267.182 317.932C267.182 300.328 252.911 286.057 235.307 286.057C252.911 286.057 267.182 271.786 267.182 254.182C267.182 236.578 252.911 222.307 235.307 222.307H171.557Z" fill="#D58705"/>
<path d="M176.43 232.051C161.517 232.051 149.428 244.14 149.428 259.053C149.428 273.966 161.517 286.056 176.43 286.056C161.517 286.056 149.428 298.145 149.428 313.058C149.428 327.971 161.517 340.061 176.43 340.061H230.435C245.348 340.061 257.438 327.971 257.438 313.058C257.438 298.145 245.348 286.056 230.435 286.056C245.348 286.056 257.438 273.966 257.438 259.053C257.438 244.14 245.348 232.051 230.435 232.051H176.43Z" fill="#F8D875"/>
<path d="M295.625 150.107C303.084 146.085 309.531 149.146 313.165 153.96C316.767 158.731 315.812 166.934 308.834 173.088C310.806 171.487 318.604 168.129 324.645 172.14C330.906 176.296 331.3 182.16 329.562 187.062C326.834 194.753 321.001 200.278 315.678 204.721C320.392 203.509 327.863 202.532 333.119 206.949C338.375 211.366 338.641 220.072 328.444 226.388C318.247 232.704 295.165 240.768 287.585 224.169C284.546 217.514 288.401 210.254 291.045 206.496C292.19 204.869 295.754 200.187 301.685 194.555C293.925 200.623 279.555 207.612 271.517 200.245C255.442 185.511 282.279 157.303 295.625 150.107Z" fill="#4643FF"/>
<mask id="mask0_144_3868" style="mask-type:alpha" maskUnits="userSpaceOnUse" x="626" y="225" width="124" height="128">
<path d="M676.625 230.272C682.697 223.768 693.008 223.768 699.08 230.272V230.272C702.69 234.139 708.036 235.876 713.229 234.87V234.87C721.965 233.177 730.306 239.237 731.396 248.068V248.068C732.043 253.318 735.347 257.866 740.141 260.104V260.104C748.203 263.87 751.389 273.676 747.08 281.46V281.46C744.518 286.089 744.518 291.71 747.08 296.338V296.338C751.389 304.123 748.203 313.929 740.141 317.694V317.694C735.347 319.932 732.043 324.48 731.396 329.73V329.73C730.306 338.561 721.965 344.622 713.229 342.929V342.929C708.036 341.923 702.69 343.659 699.08 347.526V347.526C693.008 354.03 682.697 354.03 676.625 347.526V347.526C673.015 343.659 667.669 341.923 662.475 342.929V342.929C653.74 344.622 645.398 338.561 644.309 329.73V329.73C643.661 324.48 640.357 319.932 635.564 317.694V317.694C627.502 313.929 624.316 304.123 628.625 296.338V296.338C631.187 291.71 631.187 286.089 628.625 281.46V281.46C624.316 273.676 627.502 263.87 635.564 260.104V260.104C640.357 257.866 643.661 253.318 644.309 248.068V248.068C645.398 239.237 653.74 233.177 662.475 234.87V234.87C667.669 235.876 673.015 234.139 676.625 230.272V230.272Z" fill="#BFD8DC"/>
</mask>
<g mask="url(#mask0_144_3868)">
<rect x="626.133" y="226.367" width="6.32102" height="6.32102" fill="black"/>
<rect x="626.133" y="254.812" width="6.32102" height="6.32102" fill="black"/>
<rect x="626.133" y="283.256" width="6.32102" height="6.32102" fill="black"/>
<rect x="626.133" y="312.332" width="6.32102" height="6.32102" fill="black"/>
<rect x="626.133" y="341.409" width="6.32102" height="6.32102" fill="black"/>
<rect x="655.209" y="226.367" width="6.32102" height="6.32102" fill="black"/>
<rect x="640.671" y="240.273" width="6.32102" height="6.32102" fill="black"/>
<rect x="640.671" y="269.35" width="6.32102" height="6.32102" fill="black"/>
<rect x="640.671" y="297.794" width="6.32102" height="6.32102" fill="black"/>
<rect x="640.671" y="326.871" width="6.32102" height="6.32102" fill="black"/>
<rect x="669.748" y="240.273" width="6.32102" height="6.32102" fill="black"/>
<rect x="669.748" y="269.35" width="6.32102" height="6.32102" fill="black"/>
<rect x="669.748" y="297.794" width="6.32102" height="6.32102" fill="black"/>
<rect x="669.748" y="326.871" width="6.32102" height="6.32102" fill="black"/>
<rect x="698.825" y="240.273" width="6.32102" height="6.32102" fill="black"/>
<rect x="698.825" y="269.35" width="6.32102" height="6.32102" fill="black"/>
<rect x="698.825" y="297.794" width="6.32102" height="6.32102" fill="black"/>
<rect x="698.825" y="326.871" width="6.32102" height="6.32102" fill="black"/>
<rect x="727.901" y="240.273" width="6.32102" height="6.32102" fill="black"/>
<rect x="727.901" y="269.35" width="6.32102" height="6.32102" fill="black"/>
<rect x="727.901" y="297.794" width="6.32102" height="6.32102" fill="black"/>
<rect x="727.901" y="326.871" width="6.32102" height="6.32102" fill="black"/>
<rect x="655.209" y="254.812" width="6.32102" height="6.32102" fill="black"/>
<rect x="655.209" y="283.256" width="6.32102" height="6.32102" fill="black"/>
<rect x="655.209" y="312.332" width="6.32102" height="6.32102" fill="black"/>
<rect x="655.209" y="341.409" width="6.32102" height="6.32102" fill="black"/>
<rect x="684.286" y="226.367" width="6.32102" height="6.32102" fill="black"/>
<rect x="684.286" y="254.812" width="6.32102" height="6.32102" fill="black"/>
<rect x="684.286" y="283.256" width="6.32102" height="6.32102" fill="black"/>
<rect x="684.286" y="312.332" width="6.32102" height="6.32102" fill="black"/>
<rect x="684.286" y="341.409" width="6.32102" height="6.32102" fill="black"/>
<rect x="713.362" y="226.367" width="6.32102" height="6.32102" fill="black"/>
<rect x="713.362" y="254.812" width="6.32102" height="6.32102" fill="black"/>
<rect x="713.362" y="283.256" width="6.32102" height="6.32102" fill="black"/>
<rect x="713.362" y="312.332" width="6.32102" height="6.32102" fill="black"/>
<rect x="713.362" y="341.409" width="6.32102" height="6.32102" fill="black"/>
<rect x="742.439" y="226.367" width="6.32102" height="6.32102" fill="black"/>
<rect x="742.439" y="254.812" width="6.32102" height="6.32102" fill="black"/>
<rect x="742.439" y="283.256" width="6.32102" height="6.32102" fill="black"/>
<rect x="742.439" y="312.332" width="6.32102" height="6.32102" fill="black"/>
<rect x="742.439" y="341.409" width="6.32102" height="6.32102" fill="black"/>
</g>
<mask id="mask1_144_3868" style="mask-type:alpha" maskUnits="userSpaceOnUse" x="149" y="232" width="109" height="109">
<path d="M176.43 232.051C161.517 232.051 149.428 244.14 149.428 259.053C149.428 273.966 161.517 286.056 176.43 286.056C161.517 286.056 149.428 298.145 149.428 313.058C149.428 327.971 161.517 340.061 176.43 340.061H230.435C245.348 340.061 257.438 327.971 257.438 313.058C257.438 298.145 245.348 286.056 230.435 286.056C245.348 286.056 257.438 273.966 257.438 259.053C257.438 244.14 245.348 232.051 230.435 232.051H176.43Z" fill="#F8D875"/>
</mask>
<g mask="url(#mask1_144_3868)">
<mask id="mask2_144_3868" style="mask-type:alpha" maskUnits="userSpaceOnUse" x="119" y="202" width="170" height="169">
<rect x="119.38" y="202.003" width="168.918" height="168.918" fill="#D9D9D9"/>
</mask>
<g mask="url(#mask2_144_3868)">
<path d="M184.088 223.871C180.495 238.736 148.736 278.209 115.685 308.566C111.302 312.591 106.039 311.359 102.93 310.723C97.6974 309.651 94.4025 301.84 91.1761 290.914C87.8007 279.483 88.5067 270.286 91.7306 264.952C101.834 248.236 131.463 250.924 141.439 251.686C153.031 252.572 151.1 267.359 155.349 269.328C171.463 276.795 194.146 243.976 201.404 229.47C204.214 223.854 201.838 217.347 199.057 211.975C196.716 207.453 180.844 206.427 158.751 206.459C142.367 206.483 132.201 214.887 125.543 221.411C119.937 226.905 117.781 232.837 116.335 237.352C115.618 239.593 115.407 241.868 116.849 245.013C126.378 265.784 147.374 277.261 150.019 282.217C151.307 284.629 150.704 287.588 148.894 289.837C144.791 294.937 128.057 295.748 109.15 295.441C102.233 295.329 100.863 293.21 100.042 290.199C99.2209 287.188 99.0189 282.814 100.295 279.296C101.571 275.778 104.332 273.249 107.653 271.438C127.066 260.846 157.186 269.291 167.187 273.273C182.689 279.446 181.15 302.973 181.633 312.306C182.26 324.445 202.406 294.721 209.92 279.39C211.648 275.865 212.513 272.377 212.541 269.624C212.569 266.872 211.457 264.839 209.862 263.469C206.706 260.76 198.584 259.853 189.163 259.108C185.281 258.801 183.195 260.66 181.741 262.677C174.299 273.008 182.602 295.039 186.303 307.869C187.092 310.605 184.688 313.852 181.342 316.335C162.225 330.525 129.521 327.022 114.926 324.666C110.121 323.891 112.024 315.475 112.304 311.013C112.591 306.441 115.593 301.758 121.228 296.655C137.256 282.138 151.668 284.655 155.992 284.885C158.147 285 159.934 286.902 161.371 289.373C162.808 291.845 163.766 295.287 163.557 298.774C163.348 302.262 161.943 305.69 160.14 308.368C151.456 321.267 130.709 322.003 125.781 320.981C121.988 320.194 122.879 310.999 124.13 302.338C125.214 294.828 135.381 290.616 144.217 286.826C150.648 284.066 156.734 284.094 162.582 286.273C170.565 289.247 171.421 301.096 172.457 308.49C173.413 315.309 171.929 321.54 168.608 326.679C159.689 340.482 130.964 337.334 111.66 337.536C108.17 337.572 105.778 335.851 104.522 332.608C101.394 324.527 103.593 315.777 104.745 310.522C105.307 307.961 106.888 305.906 110.082 304.345C125.848 296.641 137.479 301.738 142.367 304.606C145.081 306.198 147.034 309.822 148.298 313.319C149.561 316.816 149.761 320.524 146.543 324.326C130.6 343.157 108.109 341.595 97.3116 341.295C84.1448 340.929 94.7324 312.053 97.386 307.788C103.702 297.637 120.443 301.937 124.716 303.54C129.66 305.394 131.434 311.888 133.459 316.561C135.536 321.356 135.533 326.299 133.808 330.492C128.214 344.092 105.749 341.525 96.9704 339.925C93.4093 339.276 92.9289 335.126 92.7997 331.894C92.6705 328.662 93.2307 325.495 95.4867 322.22C105.849 307.18 133.996 308.272 150.112 310.757C157.193 311.849 159.366 325.449 160.896 337.553C161.875 345.296 159.962 351.786 156.717 358.098C149.677 371.795 118.191 370.349 105.464 368.371C102.919 367.975 103.325 362.676 104.255 359.073C106.18 351.618 113.398 346.215 122.636 341.212C154.719 323.835 192.883 334.051 204.213 341.537C207.318 343.589 209.025 348.047 211.332 350.134C213.638 352.221 215.822 352.568 218.259 351.597C223.856 349.367 227.686 342.587 230.488 336.359C232.695 331.453 232.763 326.058 231.941 320.712C231.172 315.705 225.018 313.046 218.926 310.672C211.973 307.963 205.433 307.585 200.069 309.377C185.754 314.157 180.864 327.211 170.27 330.32C165.323 331.773 164.01 316.712 164.363 302.504C164.616 292.335 173.701 283.598 184.265 274.931C203.791 258.91 237.057 263.748 269.793 269.583C276.279 270.739 278.822 273.153 280.889 272.646C282.955 272.138 284.293 269.372 283.646 265.28C282.083 255.406 275.651 248.965 270.321 245.743C249.231 232.992 221.723 230.756 211.486 230.707C192.745 230.619 193.874 270.792 196.544 280.422C200.95 296.316 192.574 314.573 190.292 318.625C188.032 322.639 182.122 323.711 173.87 324.465C160.316 325.703 149.686 322.039 146.243 317.683C138.663 308.094 155.949 284.225 173.379 266.03C189.401 249.306 212.838 248.245 230.066 246.973C233.553 246.716 235.863 249.183 238.281 249.261C240.698 249.339 243.109 247.849 244.351 245.499C245.592 243.148 245.592 239.98 244.853 237.308C244.114 234.635 242.635 232.553 239.929 230.894C233.81 227.141 216.281 226.489 195.548 227.359C185.117 227.797 182.786 236.198 179.717 239.343C176.258 242.889 164.395 238.087 152.288 230.856C147.786 228.167 148.433 224.89 151.294 222.54C169.732 207.387 198.443 212.666 209.332 214.076C213.356 214.597 213.449 218.305 213.14 221.138C211.836 233.093 201.344 244.424 186.33 254.908C171.989 264.921 146.205 264.546 133.096 260.558C131.011 259.924 131.571 256.425 132.364 253.669C134.152 247.452 139.279 243.731 144.055 242.144C146.561 241.311 149.35 240.791 151.685 241.011C154.02 241.231 155.846 242.3 156.787 244.169C157.727 246.038 157.727 248.675 157.24 251.011C156.752 253.347 155.777 255.302 153.591 257.117C140.71 267.809 118.078 265.176 106.025 261.141C100.874 259.417 98.9993 253.021 97.6527 246.691C96.1582 239.667 98.5926 232.992 102.747 227.878C115.822 211.78 140.593 217.75 145.022 218.607C147.33 219.053 149.279 221.176 150.748 224.039C152.216 226.903 153.021 230.864 152.216 234.756C151.411 238.647 148.971 242.347 144.992 245.253C126.239 258.948 105.557 252.698 100.432 250.2C95.3174 247.707 97.1703 238.589 97.3333 232.228C97.4834 226.368 100.124 220.908 106.495 214.861C126.958 195.439 155.922 195.385 168.545 195.666C173.634 195.779 175.504 203.055 180.101 205.232C188.291 209.112 201.441 200.878 215.47 205.432C224.988 208.523 231.136 227.563 234.515 236.327C237.894 245.091 236.211 246.675 231.921 249.525C221 256.781 213.052 262.782 212.402 267.246C209.54 286.9 241.513 305.563 246.573 306.186C252.651 306.935 257.425 301.2 261.008 296.049C265.934 288.964 267.084 278.197 266.701 268.402C266.075 252.414 245.085 240.939 235.906 235.043C234.034 233.84 232.799 231.784 235.392 229.091C253.661 210.116 288.495 212.572 311.622 212.56C320.34 212.556 322.888 214.251 324.113 221.134C327.507 240.198 322.438 259.773 317.173 271.378C309.059 289.265 275.491 311.466 262.945 327.026C261.631 328.654 265.728 330.664 268.217 331.804C273.304 334.135 279.351 332.956 284.243 330.292C295.129 324.361 288.615 299.697 281.51 286.076C272.863 269.496 260.618 267.212 257.2 264.502C246.015 255.632 294.623 259.387 298.672 262.285C302.848 265.273 301.659 279.253 299.984 296.27C297.724 319.222 273.023 335.167 244.423 356.96C239.023 361.076 238.668 363.718 239.838 365.28C242.698 369.098 252.203 368.71 260.379 367.88C276.896 366.203 264.885 326.751 260.219 317.932C255.562 309.131 241.998 311.067 237.469 311.313C231.631 311.631 251.311 314.36 255.262 318.324C257.16 320.229 257.615 322.968 256.697 326.314C254.508 334.298 246.662 340.125 238.476 343.989C213.863 355.606 185.186 349.521 182.875 345.699C181.701 343.759 181.877 341.147 182.075 338.764C182.274 336.382 182.834 334.135 186.255 331.216C195.104 323.663 208.664 319.727 219.268 319.805C223.851 319.839 225.811 325.728 226.949 329.07C228.086 332.412 228.086 334.529 227.048 336.593C222.001 346.626 203.205 348.642 173.486 348.911C167.55 348.965 165.845 346.39 165.136 343.984C164.427 341.578 164.825 338.497 166.063 336.151C167.302 333.806 169.367 332.29 171.532 331.428C173.696 330.566 175.896 330.404 177.208 331.56C180.207 334.203 178.912 342.147 177.64 350.031C175.466 363.504 151.592 372.58 123.098 381.183C104.116 386.913 87.6216 385.351 79.7364 383.508C76.2766 382.699 75.619 377.977 75.5299 374.695C75.3643 368.59 80.9742 362.807 88.1232 357.456C103.259 346.127 127.103 343.68 139.394 344.486C141.912 344.651 142.167 349.035 141.938 351.894C141.708 354.753 140.469 357.346 138.633 357.998C136.796 358.65 134.399 357.282 132.859 355.194C131.318 353.107 130.707 350.341 130.928 347.634C131.149 344.927 132.221 342.363 134.712 340.619C152.657 328.06 181.449 337.886 185.415 339.995C187.367 341.033 188.282 343.391 187.329 345.427C184.908 350.594 170.709 354.278 156.062 357.045C150.911 358.018 150.026 354.211 150.237 351.162C150.449 348.113 151.69 344.941 154.529 342.595C160.818 337.399 170.611 336.641 178.355 336.359C184.547 336.134 187.753 342.241 190.138 344.569C202.586 356.722 235.167 337.603 241.1 338.761C243.864 339.301 245.657 341.433 246.941 343.308C248.225 345.183 248.826 347.168 248.118 348.582C247.411 349.997 245.378 350.78 243.25 350.383C241.123 349.985 238.963 348.383 238.385 346.021C237.806 343.659 238.876 340.586 243.048 338.902C253.775 334.571 265.519 337.777 271.4 340.697C274.091 342.033 274.553 345.547 269.127 347.276C263.701 349.004 251.956 349.473 245.588 348.374C239.219 347.276 238.584 344.596 238.676 342.093C238.856 337.255 244.146 331.15 252.392 324.332C271.509 308.523 309.157 312.887 338.327 316.131C342.857 316.635 342.717 320.142 341.516 322.554C335.534 334.561 293.679 334.852 247.226 330.351C239.543 329.606 236.667 327.289 234.675 324.545C232.682 321.801 231.793 317.829 231.858 313.881C232.247 290.114 263.408 267.052 278.427 261.863C282.313 260.521 286.673 260.846 289.345 259.103C292.017 257.359 293.041 254.211 292.667 251.307C289.706 228.3 239.957 225.752 233.084 224.933C230.12 224.58 228.139 226.08 226.808 228.271C216.432 245.339 225.909 274.279 228.044 282.917C228.601 285.168 227.068 287.663 225.502 288.832C223.936 290.001 221.711 289.837 220.605 288.534C219.5 287.231 219.58 284.793 221.419 282.996C238.18 266.609 276.458 278.981 282.466 281.971C285.002 283.233 285.133 286.09 284.123 289.039C278.59 305.202 248.163 306.897 217.306 306.466C211.776 306.388 211.121 302.749 210.852 300.349C209.744 290.478 231.156 275.486 264.637 253.677C270.958 249.559 273.072 247.8 274.238 245.798C276.451 241.999 245.261 237.869 199.2 237.85C183.527 237.843 183.761 243.739 185.057 248.562C191.243 271.6 206.7 284.028 208.511 287.993C209.403 289.945 209.127 292.193 207.561 294.475C199.504 306.219 179.989 304.611 167.083 303.51C162.192 303.092 161.1 300.205 160.483 297.687C157.886 287.096 162.675 274.6 172.382 258.423C174.732 254.508 177.514 252.159 178.905 249.72C180.296 247.281 180.608 245.089 178.687 243.642C167.154 234.953 141.717 244.68 122.568 252.373C119.33 253.674 118.783 256.987 118.828 259.572C119.012 270.174 127.057 275.91 129.113 280.985C130.112 283.449 128.899 286.3 127.565 288.095C125.059 291.467 119.484 292.143 114.313 292.182C98.8628 292.298 103.479 246.091 111.042 224.429C116.469 208.885 134.112 204.233 153.253 202.071C191.126 197.793 216.663 203.375 218.254 208.769C222.555 223.354 219.877 243.453 212.494 258.007C204.124 274.508 192.37 278.666 190.789 283.333C189.995 285.678 190.725 288.359 191.986 290.769C197.368 301.051 221.356 301.892 238.397 300.641C241.119 300.441 242.717 298.189 244.18 295.721C253.53 279.95 246.604 253.658 242.371 242.946C241.454 240.625 242.592 238.099 244.662 236.865C249.515 233.974 258.036 236.709 266.892 239.613C271.543 241.137 276.071 243.981 278.28 248.948C288.149 271.144 255.917 300.585 247.047 317.141C240.314 329.707 268.261 328.328 270.307 328.483C270.565 328.503 267.413 327.637 264.9 327.981C253.568 329.532 243.432 344.323 222.687 355.863C204.363 366.056 183.859 367.942 171.682 366.885C166.791 366.461 165.313 362.174 164.948 359.352C164.584 356.529 165.58 354.256 168.154 352.007C174.188 346.732 185.652 345.016 196.123 345.382C200.1 345.522 201.105 347.936 201.155 349.912C201.601 367.592 152.417 369.665 138 370.25C132.747 370.463 131.773 367.533 131.759 365.197C131.745 362.861 132.744 360.448 134.396 358.584C144.369 347.327 178.11 355.805 211.106 364.595C233.905 370.669 245.707 384.55 251.117 385.818C257.636 387.345 265.842 380.822 272.754 375.027C275.663 372.588 275.784 369.55 275.266 367.008C273.163 356.704 248.47 341.154 239.103 324.214C233.857 314.725 279.901 295.8 295.899 279.244C305.336 269.48 278.082 258.604 274.189 253.838C270.785 249.67 275.619 242.724 278.698 237.015C288.655 218.553 217.279 212.455 204.446 213.493C184.792 215.083 199.779 263.835 199.878 294.061C199.912 304.451 194.689 310.118 188.994 314.75C180.435 321.712 170.487 323.161 165.236 323.603C162.756 323.811 160.621 323.484 158.475 321.192C147.568 309.544 149.048 295.802 147.217 285.226C144.403 268.967 180.039 256.814 206.937 248.325C218.23 244.762 229.541 245.319 239.42 245.811C254.529 246.562 276.338 276.341 292.41 300.374C298.711 309.797 299.212 329.41 302.038 349.554C303.092 357.067 309.203 357.668 313.246 358.158C317.289 358.647 320.569 358.647 322.752 357.568C324.935 356.488 325.921 354.328 326.287 351.488C326.653 348.649 326.371 345.197 325.223 342.416C320.241 330.343 302.196 328.979 295.504 329.127C283.681 329.39 292.976 354.014 288.385 363.361C283.9 372.496 271.119 367.911 266.779 367.253C264.608 366.925 262.81 365.282 262.94 363.047C263.735 349.442 295.571 346.673 321.477 346.678C325.542 346.679 325.643 350.556 324.159 353.028C322.674 355.499 319.383 357.777 315.961 359.051C312.539 360.324 309.086 360.523 306.144 359.664C303.202 358.806 300.875 356.883 299.31 353.562C290.047 333.909 299.005 306.718 306.342 292.4C318.342 268.98 343.824 259.304 345.332 254.684C346.069 252.428 345.211 249.986 343.425 247.793C334.653 237.023 321.904 236.724 316.478 236.491C297.261 235.665 287.291 273.399 282.978 272.491C278.002 271.443 270.704 260.214 259.615 248.473C242.168 230.002 209.079 243.563 202.495 245.257C189.976 248.477 187.218 275.502 187.677 286.133C187.918 291.717 202.59 292.23 216.78 292.395C226.688 292.511 234.311 288.037 241.949 280.578C259.422 263.514 259.657 242.69 259.939 230.99C260.342 214.237 216.643 213.8 206.916 215.435C197.259 217.058 190.203 232.846 177.064 243.739C172.77 247.3 162.59 236.829 151.91 229.4C128.294 212.973 144.424 302.899 152.405 314.916C162.674 330.376 123.593 343.299 123.306 347.584C123.164 349.708 124.365 351.713 126.223 353.318C134.672 360.614 173.343 358.084 207.578 354.493C217.094 353.494 223.96 347.113 230.318 342.122C241.481 333.359 242.856 303.077 241.269 277.399C240 256.86 235.382 239.649 236.295 231.291C237.015 224.705 247.353 219.608 258.335 214.713C262.773 212.735 265.339 212.838 268.211 214.182C283.629 221.398 287.192 237.473 288.083 242.542C291.445 261.678 262.22 281.6 260.801 291.355C260.418 293.986 262.384 296.804 263.972 298.896C265.559 300.988 267.547 302.262 269.263 302.076C270.979 301.889 272.363 300.203 273.38 297.951C275.549 293.145 272.232 253.979 266.752 198.177C264.815 178.466 263.985 176.289 265.032 174.238C270.151 164.213 297.416 167.591 313.92 173.932C331.805 180.805 326.322 215.589 322.665 242.955C316.652 287.943 307.92 310.479 309.029 327.874C309.975 342.715 285.595 341.328 277.177 347.484C256.1 362.899 214.668 347.092 210.105 347.223C207.849 347.288 205.892 348.897 204.443 350.536C198.15 357.648 199.641 370.774 194.395 378.534C191.674 382.558 175.094 382.577 155.099 380.913C148.022 380.325 147.878 375.924 148.607 373.154C151.45 362.351 169.956 358.511 201.069 355.111C213.425 353.761 219.509 373.057 231.496 379.004C234.226 380.359 237.44 378.994 239.857 377.707C244.097 374.263 248.502 368.289 252.63 361.445C254.232 358.353 254.832 356.034 254.488 350.274" stroke="black" stroke-width="2.43631" stroke-linecap="round"/>
</g>
</g>
<circle cx="377" cy="120" r="19.5" fill="white" stroke="black"/>
<circle cx="519" cy="120" r="19.5" fill="white" stroke="black"/>
<path d="M450.5 0C494.959 0 531 36.0411 531 80.5C531 102.277 522.351 122.032 508.304 136.523L499.559 125.393C510.39 113.563 517 97.8036 517 80.5C517 43.7731 487.227 14 450.5 14C413.773 14 384 43.7731 384 80.5C384 96.2367 389.466 110.697 398.604 122.085L390.46 134.123C377.736 119.886 370 101.097 370 80.5C370 36.0411 406.041 0 450.5 0Z" fill="black"/>
</svg>
