<svg width="121" height="86" viewBox="0 0 121 86" fill="none" xmlns="http://www.w3.org/2000/svg">
<path d="M111.278 48.8309C108.32 55.8465 104.431 59.3608 101.791 61.3199C100.358 62.4779 94.856 64.9608 93.6234 65.6483C88.4657 67.6026 82.9392 67.8213 77.4917 67.0811C71.5788 65.8768 64.3118 63.6153 62.6434 58.0306C60.3275 50.2786 57.838 38.1723 60.5698 32.9749C62.1806 29.9105 63.7935 26.8824 66.0581 25.8355C70.9549 23.5717 75.8483 19.1021 81.5627 18.1443C86.9837 17.2356 93.0562 14.8989 98.6138 18.5278C103.974 22.028 110.228 25.0198 112.454 33.9273C113.757 39.1404 113.038 44.6557 111.278 48.8309Z" fill="white" stroke="black" stroke-width="3.84175" stroke-linecap="round"/>
<path d="M51.285 62.1264C47.9589 64.2178 44.2191 65.8571 42.7631 66.8281C41.0586 67.9649 39.8699 68.378 38.6913 68.7172C35.9008 69.2653 33.4505 69.4178 31.7674 69.2243C28.2333 68.3592 24.5623 67.7013 21.5556 66.0091C18.547 64.3159 13.878 62.1125 11.3809 57.731C9.59962 54.6054 7.01942 51.6976 6.89781 42.051C6.83659 37.1945 6.89872 30.6977 12.2036 27.2162C16.2694 24.5478 19.3288 22.079 22.8309 21.0053C26.1656 19.983 29.6151 17.2675 36.9955 18.2962C41.8936 18.9789 45.9185 20.006 48.7798 22.1997C51.6039 24.3648 55.2113 27.2325 57.2116 30.8574C59.1364 34.3452 60.5172 39.107 60.4477 43.9875C60.3956 47.6523 60.8279 51.7611 58.1033 54.6407C54.4168 58.5369 54.1954 60.2965 51.285 62.1264Z" fill="white" stroke="black" stroke-width="3.84175" stroke-linecap="round"/>
<path d="M89.0271 49.487C89.9602 49.366 91.4344 49.0034 92.1179 48.3988C92.4613 48.0951 92.4585 47.498 92.4147 47.0012C92.3709 46.5043 92.1995 46.0492 91.8773 45.7419C91.2183 45.1133 89.8532 45.236 88.5119 45.5113C87.909 45.635 87.5192 45.9443 87.3158 46.3333C86.8872 47.153 87.5227 48.3504 88.3091 49.4271C88.7031 49.9218 89.0866 50.3116 89.5815 50.5087C90.0764 50.7059 90.671 50.6986 91.9077 50.6102" stroke="black" stroke-width="20.3064" stroke-linecap="round"/>
<path d="M40.9012 50.6868C41.1161 50.7288 42.229 50.6205 43.8778 50.2172C44.5598 50.0505 44.785 49.531 44.9324 49.0779C45.2263 48.1747 45.0381 47.1773 44.6962 46.3026C44.5241 45.8623 44.055 45.5784 43.5609 45.4289C42.5253 45.1155 41.3158 45.4275 40.4532 45.8337C40.1612 46.1559 40.1648 46.7138 40.2128 47.222C40.2608 47.7303 40.3529 48.172 40.6559 48.6001" stroke="black" stroke-width="20.3064" stroke-linecap="round"/>
</svg>
