<svg width="204" height="150" viewBox="0 0 204 150" fill="none" xmlns="http://www.w3.org/2000/svg">
<path d="M104.75 21.6709C96.4192 58.1159 65.3634 109.863 49.3684 123.557C47.2519 125.369 44.0618 121.253 41.8482 116.994C24.3731 83.3722 40.6093 30.8219 49.9189 21.3082C56.3578 14.7281 81.0801 47.1708 109.466 86.8984C119.335 100.711 123.676 98.8153 133.288 89.387C159.734 63.4476 179.812 32.9895 183.225 15.7703C184.44 9.63767 173.109 9.19393 165.775 11.2048C134.885 19.6745 113.777 58.2762 92.9761 75.7977C86.0003 81.6738 84.2196 78.721 85.3181 65.2962C86.4165 51.8714 89.9181 27.3722 90.2196 15.1577C90.521 2.94319 87.5161 3.75574 84.8321 6.18118C66.5505 22.7015 52.0091 53.569 50.3895 69.5693C48.188 91.3182 118.433 89.5752 153.521 97.139C160.191 98.5769 164.756 98.4753 167.543 100.556C170.331 102.636 171.223 106.797 171.387 111.375C171.55 115.953 170.959 120.822 167.514 125.117C152.205 144.203 117.884 144.1 88.8267 145.489C83.7043 145.733 81.321 141.998 80.938 137.753C80.555 133.507 82.3763 127.415 86.5648 121.944C95.5191 110.249 117.415 100.79 152.536 87.0723C173.884 78.7339 203.634 70.9693 198.856 66.5386C194.077 62.1079 154.185 62.1079 135.105 59.0708C116.025 56.0337 118.966 49.9595 121.581 43.6829C130.331 22.6868 129.495 13.6323 131.52 7.53199C136.806 -8.38778 138.683 77.3021 141.552 86.9518C148.491 110.293 78.6731 128.59 60.9227 130.986C45.5635 133.06 26.8378 86.6658 6.19303 66.9635C-4.96421 56.3157 42.1556 73.453 60.3812 75.0571C66.0701 75.5578 73.6409 75.3856 77.3736 73.1243C80.7843 66.3403 79.7044 57.351 78.1462 43.5211C77.3361 34.0207 76.4868 19.4807 75.6117 4.5" stroke="black" stroke-width="9" stroke-linecap="round"/>
</svg>
