<svg width="151" height="35" viewBox="0 0 151 35" fill="none" xmlns="http://www.w3.org/2000/svg">
<path d="M18.3056 17.2246C18.5633 17.4822 19.8065 15.5095 20.5673 11.8296C20.8939 10.2503 18.3743 9.27578 16.5996 9.21319C9.14556 8.9503 6.61137 18.7571 5.29766 22.1184C4.61908 23.8547 5.1966 26.0262 6.24551 27.4202C8.36708 30.2399 13.4931 30.1265 18.0227 29.5191C20.1385 29.2353 21.6039 27.6967 22.6066 26.167C23.6093 24.6372 24.0335 22.8293 23.9233 21.0462C23.8131 19.2631 23.1557 17.5596 21.7643 16.3545C20.3729 15.1493 18.2674 14.4941 13.7156 13.8191" stroke="black" stroke-width="10" stroke-linecap="round"/>
<path d="M72.2823 11.1462C71.1256 12.7303 69.2859 18.6759 69.2214 22.3663C69.1902 24.1484 70.2274 25.6858 72.7833 26.55C75.3391 27.4142 79.6545 27.543 82.6127 25.897C88.4956 22.6236 88.6849 15.3321 88.1593 11.7643C87.9071 10.0521 86.0636 8.98272 84.286 8.58617C82.5085 8.18962 80.4386 8.61161 78.8481 9.73849C77.2576 10.8654 76.2093 12.6844 76.3822 14.2044C76.5551 15.7245 77.9809 16.8905 81.8123 18.0918" stroke="black" stroke-width="10" stroke-linecap="round"/>
<path d="M140.439 10.4543C140.439 9.93013 138.854 8.14318 135.599 5.77817C134.085 4.67779 132.227 4.79684 130.82 5.81425C127.552 8.1766 126.475 13.9447 125.477 18.8829C125.032 21.0837 125.652 22.8039 126.756 24.0587C129.101 26.7241 135.055 26.8828 140.884 26.1055C143.299 25.7835 144.184 23.7734 144.823 22.0553C145.462 20.3371 145.72 18.5026 144.935 16.7713C144.151 15.04 142.316 13.4675 139.937 13.8757C134.691 16.7203 130.531 20.9607 129.555 23.45C129.784 24.2091 131.485 23.9448 132.841 22.4812" stroke="black" stroke-width="10" stroke-linecap="round"/>
</svg>
