<svg width="151" height="93" viewBox="0 0 151 93" fill="none" xmlns="http://www.w3.org/2000/svg">
<path d="M5.54004 4C11.93 4.2595 18.32 4.51901 39.3545 4.65269C60.3891 4.78637 95.8745 4.78637 132.435 4.78637" stroke="black" stroke-width="8" stroke-linecap="round"/>
<path d="M4 42.3073C4.12864 42.3073 4.25729 42.3073 24.1656 42.3073C44.0739 42.3073 83.7579 42.3073 105.928 41.9269C128.098 41.5465 131.551 40.7858 135.109 40.002" stroke="black" stroke-width="8" stroke-linecap="round"/>
<path d="M7.19922 88.8523C9.04458 88.6859 10.8899 88.5196 31.1714 88.4339C51.4528 88.3482 90.1143 88.3482 110.802 87.868C133.03 86.4274 136.384 85.4379 139.982 85.2061C141.814 84.9744 143.659 84.5108 146.347 84.0332" stroke="black" stroke-width="8" stroke-linecap="round"/>
</svg>
