<svg viewBox="0 0 100 100" xmlns="http://www.w3.org/2000/svg">
  <circle cx="12" cy="12" r="3.5" fill="black"/>
  <circle cx="32" cy="12" r="3.5" fill="black"/>
  <circle cx="52" cy="12" r="3.5" fill="black"/>
  <circle cx="72" cy="12" r="3.5" fill="black"/>
  <circle cx="92" cy="12" r="3.5" fill="black"/>
  <circle cx="12" cy="32" r="3.5" fill="black"/>
  <circle cx="32" cy="32" r="3.5" fill="black"/>
  <circle cx="52" cy="32" r="3.5" fill="black"/>
  <circle cx="72" cy="32" r="3.5" fill="black"/>
  <circle cx="92" cy="32" r="3.5" fill="black"/>
  <circle cx="12" cy="52" r="3.5" fill="black"/>
  <circle cx="32" cy="52" r="3.5" fill="black"/>
  <circle cx="52" cy="52" r="3.5" fill="black"/>
  <circle cx="72" cy="52" r="3.5" fill="black"/>
  <circle cx="92" cy="52" r="3.5" fill="black"/>
  <circle cx="12" cy="72" r="3.5" fill="black"/>
  <circle cx="32" cy="72" r="3.5" fill="black"/>
  <circle cx="52" cy="72" r="3.5" fill="black"/>
  <circle cx="72" cy="72" r="3.5" fill="black"/>
  <circle cx="92" cy="72" r="3.5" fill="black"/>
  <circle cx="12" cy="92" r="3.5" fill="black"/>
  <circle cx="32" cy="92" r="3.5" fill="black"/>
  <circle cx="52" cy="92" r="3.5" fill="black"/>
  <circle cx="72" cy="92" r="3.5" fill="black"/>
  <circle cx="92" cy="92" r="3.5" fill="black"/>
</svg>
