<svg width="203" height="211" viewBox="0 0 203 211" fill="none" xmlns="http://www.w3.org/2000/svg">
<path d="M82.6752 8.07783C92.7304 -2.69257 109.805 -2.69257 119.86 8.07783V8.07783C125.838 14.4813 134.691 17.3577 143.291 15.6911V15.6911C157.757 12.888 171.57 22.924 173.374 37.5478V37.5478C174.447 46.2422 179.918 53.7728 187.856 57.4797V57.4797C201.206 63.7145 206.483 79.9532 199.347 92.8445V92.8445C195.104 100.509 195.104 109.817 199.347 117.482V117.482C206.483 130.373 201.206 146.612 187.856 152.847V152.847C179.918 156.553 174.447 164.084 173.374 172.778V172.778C171.57 187.402 157.757 197.438 143.291 194.635V194.635C134.691 192.968 125.838 195.845 119.86 202.248V202.248C109.805 213.019 92.7304 213.019 82.6752 202.248V202.248C76.6969 195.845 67.8442 192.968 59.2439 194.635V194.635C44.7783 197.438 30.9649 187.402 29.1607 172.778V172.778C28.0881 164.084 22.6168 156.553 14.6794 152.847V152.847C1.32889 146.612 -3.94738 130.373 3.18864 117.482V117.482C7.43128 109.817 7.43128 100.509 3.18864 92.8445V92.8445C-3.94738 79.9532 1.32888 63.7145 14.6794 57.4797V57.4797C22.6168 53.7728 28.0881 46.2422 29.1607 37.5478V37.5478C30.9649 22.924 44.7783 12.888 59.2439 15.6911V15.6911C67.8442 17.3577 76.6969 14.4813 82.6752 8.07783V8.07783Z" fill="#FFC700"/>
</svg>
