<svg width="289" height="342" viewBox="0 0 289 342" fill="none" xmlns="http://www.w3.org/2000/svg">
<path d="M3.09277 275.027C24.7476 281.027 29.0928 329.027 41.5928 338.527C41.5928 304.527 53.4763 287.027 69.0928 287.027C50.0928 248.027 105.785 245.527 127.593 275.027C161.324 242.227 192.682 261.361 203.093 275.027C226.593 250.027 266.262 255.861 283.093 265.527C258.093 233.027 261.593 181.027 283.093 170.027C260.593 136.027 262.593 100.027 286.093 87.0273C258.593 65.0273 268.049 23.5273 277.593 7.52734C249.593 22.0273 211.928 26.5273 203.093 3.02734C174.928 39.0273 120.401 24.5273 107.093 3.02734C72.901 37.0273 31.1293 20.8607 9.09277 7.52734C34.4955 33.9273 19.6772 76.0273 9.09277 87.0273C37.827 122.627 15.0654 160.194 3.09277 172.527C31.827 220.127 15.7594 264.027 3.09277 275.027Z" fill="#FDFAE7" stroke="black" stroke-width="3" stroke-linecap="square"/>
</svg>
