<svg width="317" height="359" viewBox="0 0 317 359" fill="none" xmlns="http://www.w3.org/2000/svg">
<path d="M38.9987 74.4991C-7.98259 97.2577 16.132 172.223 38.9988 180.499C-18.9511 232.644 46.3856 288.396 72.5 264.982C91.2094 299.327 152.382 290.844 155.5 268.086C176.704 314.431 221.957 286.999 228.691 268.086C244.906 293.741 268.189 282.051 265.07 264.982C309.245 264.982 309.245 219.982 284.299 207.569C330.457 180.499 315.206 123.516 295.457 107.999C318.325 82.654 305.607 43.0854 284.299 48.7751C301.45 -0.362888 221.957 5.8439 221.957 26.5337C189.943 -18.156 130.261 6.70605 113.457 26.5337C76.5586 -28.8114 -1.53799 42.9471 38.9987 74.4991Z" fill="#FDFAE7" stroke="black" stroke-width="3"/>
<path d="M12.401 287.912C-6.79897 293.512 3.4011 320.412 12.401 320.412C11.401 335.912 28.401 330.078 33.401 320.412C56.4011 334.912 66.4011 304.412 56.401 294.412C59.401 282.912 46.7344 283.745 41.901 287.912C36.301 267.512 10.901 278.912 12.401 287.912Z" fill="#FDFAE7" stroke="black" stroke-width="3"/>
<path d="M24.7992 347.316C19.1992 352.116 25.1325 355.649 28.7992 356.816C40.2991 358.816 49.2993 351.816 40.2993 341.816C33.0993 333.816 26.9659 342.149 24.7992 347.316Z" fill="#FDFAE7" stroke="black" stroke-width="3"/>
</svg>
