<svg width="96" height="96" viewBox="0 0 96 96" fill="none" xmlns="http://www.w3.org/2000/svg">
<path d="M96 24C96 10.7452 85.2548 -5.79387e-07 72 0C58.7452 5.79387e-07 48 10.7452 48 24C48 10.7452 37.2548 1.51876e-06 24 2.09815e-06C10.7452 3.14722e-06 -1.04907e-06 10.7452 0 24C5.79387e-07 37.2548 10.7452 48 24 48C10.7452 48 1.51876e-06 58.7452 2.09815e-06 72C2.67753e-06 85.2548 10.7452 96 24 96C37.2548 96 48 85.2548 48 72C48 85.2548 58.7452 96 72 96C85.2548 96 96 85.2548 96 72C96 58.7483 85.2599 48.0051 72.0094 48C85.2599 47.9949 96 37.2517 96 24Z" fill="#4643FF"/>
</svg>
