<svg width="101" height="123" viewBox="0 0 101 123" fill="none" xmlns="http://www.w3.org/2000/svg">
<path d="M41.5064 2.65366C52.1502 -3.08579 61.3496 1.28309 66.5359 8.15229C71.6754 14.9595 70.3136 26.6654 60.3556 35.4468C63.1697 33.1632 74.2976 28.3713 82.9177 34.0939C91.8517 40.025 92.4144 48.3933 89.9336 55.388C86.0412 66.3632 77.7183 74.2462 70.1213 80.5868C76.8481 78.8567 87.5099 77.463 95.0103 83.7657C102.511 90.0684 102.89 102.492 88.3389 111.505C73.7881 120.518 40.8497 132.024 30.0339 108.339C25.6969 98.8413 31.1984 88.4824 34.9716 83.1193C36.6051 80.7976 41.6916 74.117 50.1542 66.0807C39.0809 74.7393 18.5751 84.7115 7.10537 74.1991C-15.834 53.1744 22.462 12.9229 41.5064 2.65366Z" fill="#4643FF"/>
</svg>
